<svg width="511" height="1630" viewBox="0 0 511 1630" fill="none" xmlns="http://www.w3.org/2000/svg">
<path d="M366.954 125.375V122.993H360.064V125.375H366.954Z" fill="#3A6AB9"/>
<path d="M380.204 123.18L380.01 125.551C379.008 125.435 377.993 125.376 376.964 125.376H373.52V122.993H376.964C378.057 122.993 379.138 123.057 380.204 123.18Z" fill="#3A6AB9"/>
<path d="M408.586 150.885L406.67 151.575C406.075 149.242 405.292 147.005 404.34 144.891L406.105 143.767C407.118 146.017 407.953 148.399 408.586 150.885Z" fill="#3A6AB9"/>
<path d="M402.502 137.363L400.955 138.875C399.665 137.006 398.222 135.29 396.651 133.755L397.922 131.914C399.594 133.548 401.129 135.374 402.502 137.363Z" fill="#3A6AB9"/>
<path d="M386.557 124.676L385.977 126.956C387.938 127.663 389.818 128.595 391.595 129.727L392.54 127.628C390.648 126.422 388.647 125.429 386.557 124.676Z" fill="#3A6AB9"/>
<path d="M359.74 122.993V125.376H366.63V122.993H359.74Z" fill="#3A6AB9"/>
<path d="M380.204 299.527L380.01 297.156C379.008 297.272 377.993 297.331 376.964 297.331H373.52V299.713H376.964C378.057 299.713 379.138 299.65 380.204 299.527Z" fill="#3A6AB9"/>
<path d="M410 256.31H407.998V260.409C407.998 261.632 407.948 262.841 407.851 264.032L409.843 264.263C409.947 262.995 410 261.709 410 260.409V256.31Z" fill="#3A6AB9"/>
<path d="M408.586 271.822L406.67 271.131C406.075 273.465 405.292 275.702 404.34 277.815L406.105 278.94C407.118 276.69 407.953 274.308 408.586 271.822Z" fill="#3A6AB9"/>
<path d="M402.502 285.344L400.955 283.831C399.665 285.701 398.222 287.416 396.651 288.952L397.922 290.793C399.594 289.158 401.129 287.333 402.502 285.344Z" fill="#3A6AB9"/>
<path d="M386.557 298.031L385.977 295.751C387.938 295.044 389.818 294.112 391.595 292.979L392.54 295.079C390.649 296.285 388.647 297.277 386.557 298.031Z" fill="#3A6AB9"/>
<path d="M410 248.113H407.998V239.916H410V248.113Z" fill="#3A6AB9"/>
<path d="M410 231.719H407.998V223.521H410V231.719Z" fill="#3A6AB9"/>
<path d="M410 215.324H407.998V207.127H410V215.324Z" fill="#3A6AB9"/>
<path d="M410 198.93H407.998V190.733H410V198.93Z" fill="#3A6AB9"/>
<path d="M410 182.535H407.998V174.338H410V182.535Z" fill="#3A6AB9"/>
<path d="M410 166.141H407.998V157.944H410V166.141Z" fill="#3A6AB9"/>
<path d="M153.046 299.713V297.331H159.936V299.713H153.046Z" fill="#3A6AB9"/>
<path d="M166.826 299.713V297.331H173.716V299.713H166.826Z" fill="#3A6AB9"/>
<path d="M180.606 299.713V297.331H187.495V299.713H180.606Z" fill="#3A6AB9"/>
<path d="M194.385 299.713V297.331H201.275V299.713H194.385Z" fill="#3A6AB9"/>
<path d="M208.165 299.713V297.331H215.054V299.713H208.165Z" fill="#3A6AB9"/>
<path d="M221.944 299.713V297.331H228.834V299.713H221.944Z" fill="#3A6AB9"/>
<path d="M235.724 299.713V297.331H242.614V299.713H235.724Z" fill="#3A6AB9"/>
<path d="M249.503 299.713V297.331H256.393V299.713H249.503Z" fill="#3A6AB9"/>
<path d="M263.283 299.713V297.331H270.173V299.713H263.283Z" fill="#3A6AB9"/>
<path d="M277.063 299.713V297.331H283.952V299.713H277.063Z" fill="#3A6AB9"/>
<path d="M290.842 299.713V297.331H297.732V299.713H290.842Z" fill="#3A6AB9"/>
<path d="M304.622 299.713V297.331H311.512V299.713H304.622Z" fill="#3A6AB9"/>
<path d="M318.401 299.713V297.331H325.291V299.713H318.401Z" fill="#3A6AB9"/>
<path d="M332.181 299.713V297.331H339.071V299.713H332.181Z" fill="#3A6AB9"/>
<path d="M345.96 299.713V297.331H352.85V299.713H345.96Z" fill="#3A6AB9"/>
<path d="M359.74 299.713V297.331H366.63V299.713H359.74Z" fill="#3A6AB9"/>
<path d="M139.796 297.518L139.99 299.889C140.992 299.773 142.008 299.714 143.036 299.714H146.481V297.332H143.036C141.943 297.332 140.862 297.395 139.796 297.518Z" fill="#3A6AB9"/>
<path d="M110 340.735H112.002V336.636C112.002 335.413 112.052 334.204 112.15 333.013L110.157 332.782C110.053 334.05 110 335.336 110 336.636V340.735Z" fill="#3A6AB9"/>
<path d="M111.414 325.223L113.331 325.914C113.925 323.58 114.708 321.343 115.66 319.23L113.895 318.105C112.882 320.356 112.047 322.737 111.414 325.223Z" fill="#3A6AB9"/>
<path d="M117.498 311.701L119.045 313.214C120.336 311.344 121.778 309.629 123.349 308.093L122.078 306.252C120.406 307.887 118.871 309.712 117.498 311.701Z" fill="#3A6AB9"/>
<path d="M133.443 299.015L134.023 301.294C132.062 302.001 130.182 302.933 128.405 304.066L127.46 301.966C129.352 300.76 131.353 299.768 133.443 299.015Z" fill="#3A6AB9"/>
<path d="M110 348.932H112.002V357.129H110V348.932Z" fill="#3A6AB9"/>
<path d="M110 365.326H112.002V373.524H110V365.326Z" fill="#3A6AB9"/>
<path d="M110 381.721H112.002V389.918H110V381.721Z" fill="#3A6AB9"/>
<path d="M110 398.115H112.002V406.312H110V398.115Z" fill="#3A6AB9"/>
<path d="M110 414.51H112.002V422.707H110V414.51Z" fill="#3A6AB9"/>
<path d="M110 430.904H112.002V439.101H110V430.904Z" fill="#3A6AB9"/>
<path d="M110 447.298H112.002V455.496H110V447.298Z" fill="#3A6AB9"/>
<path d="M110 463.693H112.002V471.89H110V463.693Z" fill="#3A6AB9"/>
<path d="M110 480.087H112.002V488.284H110V480.087Z" fill="#3A6AB9"/>
<path d="M110 496.482H112.002V504.679H110V496.482Z" fill="#3A6AB9"/>
<path d="M366.954 297.332V299.714H360.064V297.332H366.954Z" fill="#3A6AB9"/>
<path d="M353.174 297.332V299.714H346.285V297.332H353.174Z" fill="#3A6AB9"/>
<path d="M339.395 297.332V299.714H332.505V297.332H339.395Z" fill="#3A6AB9"/>
<path d="M325.615 297.332V299.714H318.725V297.332H325.615Z" fill="#3A6AB9"/>
<path d="M311.836 297.332V299.714H304.946V297.332H311.836Z" fill="#3A6AB9"/>
<path d="M298.056 297.332V299.714H291.166V297.332H298.056Z" fill="#3A6AB9"/>
<path d="M284.276 297.332V299.714H277.387V297.332H284.276Z" fill="#3A6AB9"/>
<path d="M270.497 297.332V299.714H263.607V297.332H270.497Z" fill="#3A6AB9"/>
<path d="M256.717 297.332V299.714H249.827V297.332H256.717Z" fill="#3A6AB9"/>
<path d="M242.938 297.332V299.714H236.048V297.332H242.938Z" fill="#3A6AB9"/>
<path d="M229.158 297.332V299.714H222.268V297.332H229.158Z" fill="#3A6AB9"/>
<path d="M215.379 297.332V299.714H208.489V297.332H215.379Z" fill="#3A6AB9"/>
<path d="M201.599 297.332V299.714H194.709V297.332H201.599Z" fill="#3A6AB9"/>
<path d="M187.819 297.332V299.714H180.93V297.332H187.819Z" fill="#3A6AB9"/>
<path d="M174.04 297.332V299.714H167.15V297.332H174.04Z" fill="#3A6AB9"/>
<path d="M160.26 297.332V299.714H153.37V297.332H160.26Z" fill="#3A6AB9"/>
<path d="M380.204 802.527L380.01 800.156C379.009 800.272 377.993 800.331 376.965 800.331H373.52V802.713H376.965C378.058 802.713 379.138 802.65 380.204 802.527Z" fill="#3A6AB9"/>
<path d="M408.586 774.822L406.67 774.131C406.075 776.465 405.292 778.702 404.34 780.815L406.105 781.94C407.118 779.689 407.953 777.308 408.586 774.822Z" fill="#3A6AB9"/>
<path d="M402.502 788.344L400.955 786.831C399.665 788.701 398.222 790.416 396.651 791.952L397.922 793.793C399.594 792.158 401.129 790.333 402.502 788.344Z" fill="#3A6AB9"/>
<path d="M386.558 801.03L385.977 798.751C387.939 798.044 389.818 797.112 391.595 795.979L392.54 798.079C390.649 799.285 388.647 800.277 386.558 801.03Z" fill="#3A6AB9"/>
<path d="M153.046 802.713V800.331H159.936V802.713H153.046Z" fill="#3A6AB9"/>
<path d="M166.826 802.713V800.331H173.716V802.713H166.826Z" fill="#3A6AB9"/>
<path d="M180.606 802.713V800.331H187.495V802.713H180.606Z" fill="#3A6AB9"/>
<path d="M194.385 802.713V800.331H201.275V802.713H194.385Z" fill="#3A6AB9"/>
<path d="M208.165 802.713V800.331H215.055V802.713H208.165Z" fill="#3A6AB9"/>
<path d="M221.944 802.713V800.331H228.834V802.713H221.944Z" fill="#3A6AB9"/>
<path d="M235.724 802.713V800.331H242.614V802.713H235.724Z" fill="#3A6AB9"/>
<path d="M249.503 802.713V800.331H256.393V802.713H249.503Z" fill="#3A6AB9"/>
<path d="M263.283 802.713V800.331H270.173V802.713H263.283Z" fill="#3A6AB9"/>
<path d="M277.063 802.713V800.331H283.952V802.713H277.063Z" fill="#3A6AB9"/>
<path d="M290.842 802.713V800.331H297.732V802.713H290.842Z" fill="#3A6AB9"/>
<path d="M304.622 802.713V800.331H311.512V802.713H304.622Z" fill="#3A6AB9"/>
<path d="M318.401 802.713V800.331H325.291V802.713H318.401Z" fill="#3A6AB9"/>
<path d="M332.181 802.713V800.331H339.071V802.713H332.181Z" fill="#3A6AB9"/>
<path d="M345.961 802.713V800.331H352.85V802.713H345.961Z" fill="#3A6AB9"/>
<path d="M359.74 802.713V800.331H366.63V802.713H359.74Z" fill="#3A6AB9"/>
<path d="M139.797 800.518L139.99 802.889C140.992 802.773 142.008 802.714 143.036 802.714H146.481V800.332H143.036C141.943 800.332 140.862 800.395 139.797 800.518Z" fill="#3A6AB9"/>
<path d="M110 843.735H112.002V839.636C112.002 838.413 112.052 837.204 112.15 836.013L110.157 835.782C110.053 837.05 110 838.336 110 839.636V843.735Z" fill="#3A6AB9"/>
<path d="M111.415 828.223L113.331 828.914C113.925 826.58 114.708 824.343 115.66 822.23L113.895 821.105C112.882 823.355 112.048 825.737 111.415 828.223Z" fill="#3A6AB9"/>
<path d="M117.498 814.701L119.045 816.214C120.336 814.344 121.778 812.629 123.349 811.093L122.078 809.252C120.406 810.886 118.872 812.712 117.498 814.701Z" fill="#3A6AB9"/>
<path d="M133.443 802.014L134.023 804.294C132.062 805.001 130.182 805.933 128.406 807.066L127.46 804.966C129.352 803.76 131.354 802.768 133.443 802.014Z" fill="#3A6AB9"/>
<path d="M110 851.932H112.002V860.129H110V851.932Z" fill="#3A6AB9"/>
<path d="M110 868.326H112.002V876.524H110V868.326Z" fill="#3A6AB9"/>
<path d="M110 884.721H112.002V892.918H110V884.721Z" fill="#3A6AB9"/>
<path d="M110 901.115H112.002V909.312H110V901.115Z" fill="#3A6AB9"/>
<path d="M110 917.51H112.002V925.707H110V917.51Z" fill="#3A6AB9"/>
<path d="M110 933.904H112.002V942.101H110V933.904Z" fill="#3A6AB9"/>
<path d="M110 950.298H112.002V958.495H110V950.298Z" fill="#3A6AB9"/>
<path d="M110 966.693H112.002V974.89H110V966.693Z" fill="#3A6AB9"/>
<path d="M110 983.087H112.002L112.002 991.284H110L110 983.087Z" fill="#3A6AB9"/>
<path d="M110 999.481H112.002V1007.68H110V999.481Z" fill="#3A6AB9"/>
<path d="M366.954 800.332V802.714H360.064V800.332H366.954Z" fill="#3A6AB9"/>
<path d="M353.174 800.332V802.714H346.285V800.332H353.174Z" fill="#3A6AB9"/>
<path d="M339.395 800.332V802.714H332.505V800.332H339.395Z" fill="#3A6AB9"/>
<path d="M325.615 800.332V802.714H318.725V800.332H325.615Z" fill="#3A6AB9"/>
<path d="M311.836 800.332V802.714H304.946V800.332H311.836Z" fill="#3A6AB9"/>
<path d="M298.056 800.332V802.714H291.166V800.332H298.056Z" fill="#3A6AB9"/>
<path d="M284.276 800.332V802.714H277.387V800.332H284.276Z" fill="#3A6AB9"/>
<path d="M270.497 800.332V802.714H263.607V800.332H270.497Z" fill="#3A6AB9"/>
<path d="M256.717 800.332V802.714H249.828V800.332H256.717Z" fill="#3A6AB9"/>
<path d="M242.938 800.332V802.714H236.048V800.332H242.938Z" fill="#3A6AB9"/>
<path d="M229.158 800.332V802.714H222.268V800.332H229.158Z" fill="#3A6AB9"/>
<path d="M215.379 800.332V802.714H208.489V800.332H215.379Z" fill="#3A6AB9"/>
<path d="M201.599 800.332V802.714H194.709V800.332H201.599Z" fill="#3A6AB9"/>
<path d="M187.819 800.332V802.714H180.93V800.332H187.819Z" fill="#3A6AB9"/>
<path d="M174.04 800.332V802.714H167.15V800.332H174.04Z" fill="#3A6AB9"/>
<path d="M160.26 800.332V802.714H153.37V800.332H160.26Z" fill="#3A6AB9"/>
<path d="M380.204 547.518L380.01 549.889C379.008 549.773 377.993 549.714 376.964 549.714H373.52V547.332H376.964C378.057 547.332 379.138 547.395 380.204 547.518Z" fill="#3A6AB9"/>
<path d="M410 590.735H407.998V586.636C407.998 585.413 407.948 584.204 407.851 583.013L409.843 582.782C409.947 584.05 410 585.336 410 586.636V590.735Z" fill="#3A6AB9"/>
<path d="M408.586 575.223L406.67 575.914C406.075 573.58 405.292 571.343 404.34 569.23L406.105 568.105C407.118 570.356 407.953 572.737 408.586 575.223Z" fill="#3A6AB9"/>
<path d="M402.502 561.701L400.955 563.214C399.665 561.344 398.222 559.629 396.651 558.093L397.922 556.252C399.594 557.887 401.129 559.712 402.502 561.701Z" fill="#3A6AB9"/>
<path d="M386.557 549.015L385.977 551.294C387.938 552.001 389.818 552.933 391.595 554.066L392.54 551.966C390.649 550.76 388.647 549.768 386.557 549.015Z" fill="#3A6AB9"/>
<path d="M410 598.932H407.998V607.129H410V598.932Z" fill="#3A6AB9"/>
<path d="M410 615.326H407.998V623.524H410V615.326Z" fill="#3A6AB9"/>
<path d="M410 631.721H407.998V639.918H410V631.721Z" fill="#3A6AB9"/>
<path d="M410 648.115H407.998V656.312H410V648.115Z" fill="#3A6AB9"/>
<path d="M410 664.51H407.998V672.707H410V664.51Z" fill="#3A6AB9"/>
<path d="M410 680.904H407.998V689.101H410V680.904Z" fill="#3A6AB9"/>
<path d="M410 697.298H407.998V705.496H410V697.298Z" fill="#3A6AB9"/>
<path d="M410 713.693H407.998V721.89H410V713.693Z" fill="#3A6AB9"/>
<path d="M410 730.087H407.998V738.284H410V730.087Z" fill="#3A6AB9"/>
<path d="M410 746.482H407.998V754.679H410V746.482Z" fill="#3A6AB9"/>
<path d="M410 762.876H407.998V769.073H410V762.876Z" fill="#3A6AB9"/>
<path d="M153.046 547.332V549.714H159.936V547.332H153.046Z" fill="#3A6AB9"/>
<path d="M166.826 547.332V549.714H173.716V547.332H166.826Z" fill="#3A6AB9"/>
<path d="M180.606 547.332V549.714H187.495V547.332H180.606Z" fill="#3A6AB9"/>
<path d="M194.385 547.332V549.714H201.275V547.332H194.385Z" fill="#3A6AB9"/>
<path d="M208.165 547.332V549.714H215.054V547.332H208.165Z" fill="#3A6AB9"/>
<path d="M221.944 547.332V549.714H228.834V547.332H221.944Z" fill="#3A6AB9"/>
<path d="M235.724 547.332V549.714H242.614V547.332H235.724Z" fill="#3A6AB9"/>
<path d="M249.503 547.332V549.714H256.393V547.332H249.503Z" fill="#3A6AB9"/>
<path d="M263.283 547.332V549.714H270.173V547.332H263.283Z" fill="#3A6AB9"/>
<path d="M277.063 547.332V549.714H283.952V547.332H277.063Z" fill="#3A6AB9"/>
<path d="M290.842 547.332V549.714H297.732V547.332H290.842Z" fill="#3A6AB9"/>
<path d="M304.622 547.332V549.714H311.512V547.332H304.622Z" fill="#3A6AB9"/>
<path d="M318.401 547.332V549.714H325.291V547.332H318.401Z" fill="#3A6AB9"/>
<path d="M332.181 547.332V549.714H339.071V547.332H332.181Z" fill="#3A6AB9"/>
<path d="M345.96 547.332V549.714H352.85V547.332H345.96Z" fill="#3A6AB9"/>
<path d="M359.74 547.332V549.714H366.63V547.332H359.74Z" fill="#3A6AB9"/>
<path d="M139.796 549.527L139.99 547.156C140.992 547.272 142.008 547.331 143.036 547.331H146.481V549.713H143.036C141.943 549.713 140.862 549.65 139.796 549.527Z" fill="#3A6AB9"/>
<path d="M110 506.31H112.002V510.409C112.002 511.632 112.052 512.841 112.15 514.032L110.157 514.263C110.053 512.995 110 511.709 110 510.409V506.31Z" fill="#3A6AB9"/>
<path d="M111.414 521.822L113.331 521.131C113.925 523.465 114.708 525.702 115.66 527.815L113.895 528.94C112.882 526.69 112.047 524.308 111.414 521.822Z" fill="#3A6AB9"/>
<path d="M117.498 535.344L119.045 533.831C120.336 535.701 121.778 537.416 123.349 538.952L122.078 540.793C120.406 539.159 118.871 537.333 117.498 535.344Z" fill="#3A6AB9"/>
<path d="M133.443 548.031L134.023 545.751C132.062 545.044 130.182 544.112 128.405 542.979L127.46 545.079C129.352 546.285 131.353 547.277 133.443 548.031Z" fill="#3A6AB9"/>
<path d="M366.954 549.713V547.331H360.064V549.713H366.954Z" fill="#3A6AB9"/>
<path d="M353.174 549.713V547.331H346.285V549.713H353.174Z" fill="#3A6AB9"/>
<path d="M339.395 549.713V547.331H332.505V549.713H339.395Z" fill="#3A6AB9"/>
<path d="M325.615 549.713V547.331H318.725V549.713H325.615Z" fill="#3A6AB9"/>
<path d="M311.836 549.713V547.331H304.946V549.713H311.836Z" fill="#3A6AB9"/>
<path d="M298.056 549.713V547.331H291.166V549.713H298.056Z" fill="#3A6AB9"/>
<path d="M284.276 549.713V547.331H277.387V549.713H284.276Z" fill="#3A6AB9"/>
<path d="M270.497 549.713V547.331H263.607V549.713H270.497Z" fill="#3A6AB9"/>
<path d="M256.717 549.713V547.331H249.827V549.713H256.717Z" fill="#3A6AB9"/>
<path d="M242.938 549.713V547.331H236.048V549.713H242.938Z" fill="#3A6AB9"/>
<path d="M229.158 549.713V547.331H222.268V549.713H229.158Z" fill="#3A6AB9"/>
<path d="M215.379 549.713V547.331H208.489V549.713H215.379Z" fill="#3A6AB9"/>
<path d="M201.599 549.713V547.331H194.709V549.713H201.599Z" fill="#3A6AB9"/>
<path d="M187.819 549.713V547.331H180.93V549.713H187.819Z" fill="#3A6AB9"/>
<path d="M174.04 549.713V547.331H167.15V549.713H174.04Z" fill="#3A6AB9"/>
<path d="M160.26 549.713V547.331H153.37V549.713H160.26Z" fill="#3A6AB9"/>
<path d="M139.796 800.518L139.99 802.889C140.992 802.773 142.008 802.714 143.036 802.714H146.481V800.332H143.036C141.943 800.332 140.862 800.395 139.796 800.518Z" fill="#3A6AB9"/>
<path d="M110 843.735H112.002V839.636C112.002 838.413 112.052 837.204 112.15 836.013L110.157 835.782C110.053 837.05 110 838.336 110 839.636V843.735Z" fill="#3A6AB9"/>
<path d="M111.414 828.223L113.331 828.914C113.925 826.58 114.708 824.343 115.66 822.23L113.895 821.105C112.882 823.356 112.047 825.737 111.414 828.223Z" fill="#3A6AB9"/>
<path d="M117.498 814.701L119.045 816.214C120.336 814.344 121.778 812.629 123.349 811.093L122.078 809.252C120.406 810.887 118.871 812.712 117.498 814.701Z" fill="#3A6AB9"/>
<path d="M133.443 802.015L134.023 804.294C132.062 805.001 130.182 805.933 128.405 807.066L127.46 804.966C129.352 803.76 131.353 802.768 133.443 802.015Z" fill="#3A6AB9"/>
<path d="M110 851.932H112.002V860.129H110V851.932Z" fill="#3A6AB9"/>
<path d="M110 868.326H112.002V876.524H110V868.326Z" fill="#3A6AB9"/>
<path d="M110 884.721H112.002V892.918H110V884.721Z" fill="#3A6AB9"/>
<path d="M110 901.115H112.002V909.312H110V901.115Z" fill="#3A6AB9"/>
<path d="M110 917.51H112.002V925.707H110V917.51Z" fill="#3A6AB9"/>
<path d="M110 933.904H112.002V942.101H110V933.904Z" fill="#3A6AB9"/>
<path d="M110 950.298H112.002V958.496H110V950.298Z" fill="#3A6AB9"/>
<path d="M110 966.693H112.002L112.002 974.89H110L110 966.693Z" fill="#3A6AB9"/>
<path d="M110 983.087H112.002L112.002 991.284H110L110 983.087Z" fill="#3A6AB9"/>
<path d="M110 999.482H112.002V1007.68H110V999.482Z" fill="#3A6AB9"/>
<path d="M380.204 1305.53L380.01 1303.16C379.009 1303.27 377.993 1303.33 376.965 1303.33H373.52V1305.71H376.965C378.058 1305.71 379.138 1305.65 380.204 1305.53Z" fill="#3A6AB9"/>
<path d="M408.586 1277.82L406.67 1277.13C406.075 1279.47 405.292 1281.7 404.34 1283.82L406.105 1284.94C407.118 1282.69 407.953 1280.31 408.586 1277.82Z" fill="#3A6AB9"/>
<path d="M402.502 1291.34L400.955 1289.83C399.665 1291.7 398.222 1293.42 396.651 1294.95L397.922 1296.79C399.594 1295.16 401.129 1293.33 402.502 1291.34Z" fill="#3A6AB9"/>
<path d="M386.558 1304.03L385.977 1301.75C387.939 1301.04 389.818 1300.11 391.595 1298.98L392.54 1301.08C390.649 1302.28 388.647 1303.28 386.558 1304.03Z" fill="#3A6AB9"/>
<path d="M153.046 1305.71V1303.33H159.936V1305.71H153.046Z" fill="#3A6AB9"/>
<path d="M166.826 1305.71V1303.33H173.716V1305.71H166.826Z" fill="#3A6AB9"/>
<path d="M180.606 1305.71V1303.33H187.495V1305.71H180.606Z" fill="#3A6AB9"/>
<path d="M194.385 1305.71V1303.33H201.275V1305.71H194.385Z" fill="#3A6AB9"/>
<path d="M208.165 1305.71V1303.33H215.055V1305.71H208.165Z" fill="#3A6AB9"/>
<path d="M221.944 1305.71V1303.33H228.834V1305.71H221.944Z" fill="#3A6AB9"/>
<path d="M235.724 1305.71V1303.33H242.614V1305.71H235.724Z" fill="#3A6AB9"/>
<path d="M249.503 1305.71V1303.33H256.393V1305.71H249.503Z" fill="#3A6AB9"/>
<path d="M263.283 1305.71V1303.33H270.173V1305.71H263.283Z" fill="#3A6AB9"/>
<path d="M277.063 1305.71V1303.33H283.952V1305.71H277.063Z" fill="#3A6AB9"/>
<path d="M290.842 1305.71V1303.33H297.732V1305.71H290.842Z" fill="#3A6AB9"/>
<path d="M304.622 1305.71V1303.33H311.512V1305.71H304.622Z" fill="#3A6AB9"/>
<path d="M318.401 1305.71V1303.33H325.291V1305.71H318.401Z" fill="#3A6AB9"/>
<path d="M332.181 1305.71V1303.33H339.071V1305.71H332.181Z" fill="#3A6AB9"/>
<path d="M345.961 1305.71V1303.33H352.85V1305.71H345.961Z" fill="#3A6AB9"/>
<path d="M359.74 1305.71V1303.33H366.63V1305.71H359.74Z" fill="#3A6AB9"/>
<path d="M139.797 1303.52L139.99 1305.89C140.992 1305.77 142.008 1305.71 143.036 1305.71H146.481V1303.33H143.036C141.943 1303.33 140.862 1303.39 139.797 1303.52Z" fill="#3A6AB9"/>
<path d="M110 1346.73H112.002V1342.64C112.002 1341.41 112.052 1340.2 112.15 1339.01L110.157 1338.78C110.053 1340.05 110 1341.34 110 1342.64V1346.73Z" fill="#3A6AB9"/>
<path d="M111.415 1331.22L113.331 1331.91C113.925 1329.58 114.708 1327.34 115.66 1325.23L113.895 1324.1C112.882 1326.36 112.048 1328.74 111.415 1331.22Z" fill="#3A6AB9"/>
<path d="M117.498 1317.7L119.045 1319.21C120.336 1317.34 121.778 1315.63 123.349 1314.09L122.078 1312.25C120.406 1313.89 118.872 1315.71 117.498 1317.7Z" fill="#3A6AB9"/>
<path d="M133.443 1305.01L134.023 1307.29C132.062 1308 130.182 1308.93 128.406 1310.07L127.46 1307.97C129.352 1306.76 131.354 1305.77 133.443 1305.01Z" fill="#3A6AB9"/>
<path d="M110 1354.93H112.002V1363.13H110V1354.93Z" fill="#3A6AB9"/>
<path d="M366.954 1303.33V1305.71H360.064V1303.33H366.954Z" fill="#3A6AB9"/>
<path d="M353.174 1303.33V1305.71H346.285V1303.33H353.174Z" fill="#3A6AB9"/>
<path d="M339.395 1303.33V1305.71H332.505V1303.33H339.395Z" fill="#3A6AB9"/>
<path d="M325.615 1303.33V1305.71H318.725V1303.33H325.615Z" fill="#3A6AB9"/>
<path d="M311.836 1303.33V1305.71H304.946V1303.33H311.836Z" fill="#3A6AB9"/>
<path d="M298.056 1303.33V1305.71H291.166V1303.33H298.056Z" fill="#3A6AB9"/>
<path d="M284.276 1303.33V1305.71H277.387V1303.33H284.276Z" fill="#3A6AB9"/>
<path d="M270.497 1303.33V1305.71H263.607V1303.33H270.497Z" fill="#3A6AB9"/>
<path d="M256.717 1303.33V1305.71H249.828V1303.33H256.717Z" fill="#3A6AB9"/>
<path d="M242.938 1303.33V1305.71H236.048V1303.33H242.938Z" fill="#3A6AB9"/>
<path d="M229.158 1303.33V1305.71H222.268V1303.33H229.158Z" fill="#3A6AB9"/>
<path d="M215.379 1303.33V1305.71H208.489V1303.33H215.379Z" fill="#3A6AB9"/>
<path d="M201.599 1303.33V1305.71H194.709V1303.33H201.599Z" fill="#3A6AB9"/>
<path d="M187.819 1303.33V1305.71H180.93V1303.33H187.819Z" fill="#3A6AB9"/>
<path d="M174.04 1303.33V1305.71H167.15V1303.33H174.04Z" fill="#3A6AB9"/>
<path d="M160.26 1303.33V1305.71H153.37V1303.33H160.26Z" fill="#3A6AB9"/>
<path d="M380.204 1050.52L380.01 1052.89C379.008 1052.77 377.993 1052.71 376.964 1052.71H373.52V1050.33H376.964C378.057 1050.33 379.138 1050.4 380.204 1050.52Z" fill="#3A6AB9"/>
<path d="M410 1093.73H407.998V1089.64C407.998 1088.41 407.948 1087.2 407.851 1086.01L409.843 1085.78C409.947 1087.05 410 1088.34 410 1089.64V1093.73Z" fill="#3A6AB9"/>
<path d="M408.586 1078.22L406.67 1078.91C406.075 1076.58 405.292 1074.34 404.34 1072.23L406.105 1071.11C407.118 1073.36 407.953 1075.74 408.586 1078.22Z" fill="#3A6AB9"/>
<path d="M402.502 1064.7L400.955 1066.21C399.665 1064.34 398.222 1062.63 396.651 1061.09L397.922 1059.25C399.594 1060.89 401.129 1062.71 402.502 1064.7Z" fill="#3A6AB9"/>
<path d="M386.557 1052.01L385.977 1054.29C387.938 1055 389.818 1055.93 391.595 1057.07L392.54 1054.97C390.649 1053.76 388.647 1052.77 386.557 1052.01Z" fill="#3A6AB9"/>
<path d="M410 1101.93H407.998V1110.13H410V1101.93Z" fill="#3A6AB9"/>
<path d="M410 1118.33H407.998V1126.52H410V1118.33Z" fill="#3A6AB9"/>
<path d="M410 1134.72H407.998V1142.92H410V1134.72Z" fill="#3A6AB9"/>
<path d="M410 1151.12H407.998V1159.31H410V1151.12Z" fill="#3A6AB9"/>
<path d="M410 1167.51H407.998V1175.71H410V1167.51Z" fill="#3A6AB9"/>
<path d="M410 1183.9H407.998V1192.1H410V1183.9Z" fill="#3A6AB9"/>
<path d="M410 1200.3H407.998V1208.5H410V1200.3Z" fill="#3A6AB9"/>
<path d="M410 1216.69H407.998V1224.89H410V1216.69Z" fill="#3A6AB9"/>
<path d="M410 1233.09H407.998V1241.28H410V1233.09Z" fill="#3A6AB9"/>
<path d="M410 1249.48H407.998V1257.68H410V1249.48Z" fill="#3A6AB9"/>
<path d="M410 1265.88H407.998V1272.07H410V1265.88Z" fill="#3A6AB9"/>
<path d="M153.046 1050.33V1052.71H159.936V1050.33H153.046Z" fill="#3A6AB9"/>
<path d="M166.826 1050.33V1052.71H173.716V1050.33H166.826Z" fill="#3A6AB9"/>
<path d="M180.606 1050.33V1052.71H187.495V1050.33H180.606Z" fill="#3A6AB9"/>
<path d="M194.385 1050.33V1052.71H201.275V1050.33H194.385Z" fill="#3A6AB9"/>
<path d="M208.165 1050.33V1052.71H215.054V1050.33H208.165Z" fill="#3A6AB9"/>
<path d="M221.944 1050.33V1052.71H228.834V1050.33H221.944Z" fill="#3A6AB9"/>
<path d="M235.724 1050.33V1052.71H242.614V1050.33H235.724Z" fill="#3A6AB9"/>
<path d="M249.503 1050.33V1052.71H256.393V1050.33H249.503Z" fill="#3A6AB9"/>
<path d="M263.283 1050.33V1052.71H270.173V1050.33H263.283Z" fill="#3A6AB9"/>
<path d="M277.063 1050.33V1052.71H283.952V1050.33H277.063Z" fill="#3A6AB9"/>
<path d="M290.842 1050.33V1052.71H297.732V1050.33H290.842Z" fill="#3A6AB9"/>
<path d="M304.622 1050.33V1052.71H311.512V1050.33H304.622Z" fill="#3A6AB9"/>
<path d="M318.401 1050.33V1052.71H325.291V1050.33H318.401Z" fill="#3A6AB9"/>
<path d="M332.181 1050.33V1052.71H339.071V1050.33H332.181Z" fill="#3A6AB9"/>
<path d="M345.96 1050.33V1052.71H352.85V1050.33H345.96Z" fill="#3A6AB9"/>
<path d="M359.74 1050.33V1052.71H366.63V1050.33H359.74Z" fill="#3A6AB9"/>
<path d="M139.796 1052.53L139.99 1050.16C140.992 1050.27 142.008 1050.33 143.036 1050.33H146.481V1052.71H143.036C141.943 1052.71 140.862 1052.65 139.796 1052.53Z" fill="#3A6AB9"/>
<path d="M110 1009.31H112.002V1013.41C112.002 1014.63 112.052 1015.84 112.15 1017.03L110.157 1017.26C110.053 1015.99 110 1014.71 110 1013.41V1009.31Z" fill="#3A6AB9"/>
<path d="M111.414 1024.82L113.331 1024.13C113.925 1026.47 114.708 1028.7 115.66 1030.82L113.895 1031.94C112.882 1029.69 112.047 1027.31 111.414 1024.82Z" fill="#3A6AB9"/>
<path d="M117.498 1038.34L119.045 1036.83C120.336 1038.7 121.778 1040.42 123.349 1041.95L122.078 1043.79C120.406 1042.16 118.871 1040.33 117.498 1038.34Z" fill="#3A6AB9"/>
<path d="M133.443 1051.03L134.023 1048.75C132.062 1048.04 130.182 1047.11 128.405 1045.98L127.46 1048.08C129.352 1049.28 131.353 1050.28 133.443 1051.03Z" fill="#3A6AB9"/>
<path d="M366.954 1052.71V1050.33H360.064V1052.71H366.954Z" fill="#3A6AB9"/>
<path d="M353.174 1052.71V1050.33H346.285V1052.71H353.174Z" fill="#3A6AB9"/>
<path d="M339.395 1052.71V1050.33H332.505V1052.71H339.395Z" fill="#3A6AB9"/>
<path d="M325.615 1052.71V1050.33H318.725V1052.71H325.615Z" fill="#3A6AB9"/>
<path d="M311.836 1052.71V1050.33H304.946V1052.71H311.836Z" fill="#3A6AB9"/>
<path d="M298.056 1052.71V1050.33H291.166V1052.71H298.056Z" fill="#3A6AB9"/>
<path d="M284.276 1052.71V1050.33H277.387V1052.71H284.276Z" fill="#3A6AB9"/>
<path d="M270.497 1052.71V1050.33H263.607V1052.71H270.497Z" fill="#3A6AB9"/>
<path d="M256.717 1052.71V1050.33H249.827V1052.71H256.717Z" fill="#3A6AB9"/>
<path d="M242.938 1052.71V1050.33H236.048V1052.71H242.938Z" fill="#3A6AB9"/>
<path d="M229.158 1052.71V1050.33H222.268V1052.71H229.158Z" fill="#3A6AB9"/>
<path d="M215.379 1052.71V1050.33H208.489V1052.71H215.379Z" fill="#3A6AB9"/>
<path d="M201.599 1052.71V1050.33H194.709V1052.71H201.599Z" fill="#3A6AB9"/>
<path d="M187.819 1052.71V1050.33H180.93V1052.71H187.819Z" fill="#3A6AB9"/>
<path d="M174.04 1052.71V1050.33H167.15V1052.71H174.04Z" fill="#3A6AB9"/>
<path d="M160.26 1052.71V1050.33H153.37V1052.71H160.26Z" fill="#3A6AB9"/>
<path d="M139.796 1303.52L139.99 1305.89C140.992 1305.77 142.008 1305.71 143.036 1305.71H146.481V1303.33H143.036C141.943 1303.33 140.862 1303.39 139.796 1303.52Z" fill="#3A6AB9"/>
<path d="M110 1346.73H112.002V1342.64C112.002 1341.41 112.052 1340.2 112.15 1339.01L110.157 1338.78C110.053 1340.05 110 1341.34 110 1342.64V1346.73Z" fill="#3A6AB9"/>
<path d="M111.414 1331.22L113.331 1331.91C113.925 1329.58 114.708 1327.34 115.66 1325.23L113.895 1324.1C112.882 1326.36 112.047 1328.74 111.414 1331.22Z" fill="#3A6AB9"/>
<path d="M117.498 1317.7L119.045 1319.21C120.336 1317.34 121.778 1315.63 123.349 1314.09L122.078 1312.25C120.406 1313.89 118.871 1315.71 117.498 1317.7Z" fill="#3A6AB9"/>
<path d="M133.443 1305.01L134.023 1307.29C132.062 1308 130.182 1308.93 128.405 1310.07L127.46 1307.97C129.352 1306.76 131.353 1305.77 133.443 1305.01Z" fill="#3A6AB9"/>
<path d="M110 1354.93H112.002V1363.13H110V1354.93Z" fill="#3A6AB9"/>
<path d="M110 1371.33H112.002V1379.52H110V1371.33Z" fill="#3A6AB9"/>
<path d="M110 1387.72H112.002V1395.92H110V1387.72Z" fill="#3A6AB9"/>
<path d="M110 1404.12H112.002V1412.31H110V1404.12Z" fill="#3A6AB9"/>
<path d="M110 1420.51H112.002V1428.71H110V1420.51Z" fill="#3A6AB9"/>
<path d="M110 1436.9H112.002V1445.1H110V1436.9Z" fill="#3A6AB9"/>
<path d="M110 1453.3H112.002V1461.5H110V1453.3Z" fill="#3A6AB9"/>
<path d="M110 1469.69H112.002L112.002 1477.89H110L110 1469.69Z" fill="#3A6AB9"/>
<path d="M110 1486.09H112.002L112.002 1494.28H110L110 1486.09Z" fill="#3A6AB9"/>
<path d="M110 1502.48H112.002V1510.68H110V1502.48Z" fill="#3A6AB9"/>
<path d="M380.204 1553.52L380.01 1555.89C379.008 1555.77 377.993 1555.71 376.964 1555.71H373.52V1553.33H376.964C378.057 1553.33 379.138 1553.39 380.204 1553.52Z" fill="#3A6AB9"/>
<path d="M410 1596.73H407.998V1592.64C407.998 1591.41 407.948 1590.2 407.851 1589.01L409.843 1588.78C409.947 1590.05 410 1591.34 410 1592.64V1596.73Z" fill="#3A6AB9"/>
<path d="M408.586 1581.22L406.67 1581.91C406.075 1579.58 405.292 1577.34 404.34 1575.23L406.105 1574.1C407.118 1576.36 407.953 1578.74 408.586 1581.22Z" fill="#3A6AB9"/>
<path d="M402.502 1567.7L400.955 1569.21C399.665 1567.34 398.222 1565.63 396.651 1564.09L397.922 1562.25C399.594 1563.89 401.129 1565.71 402.502 1567.7Z" fill="#3A6AB9"/>
<path d="M386.557 1555.01L385.977 1557.29C387.938 1558 389.818 1558.93 391.595 1560.07L392.54 1557.97C390.649 1556.76 388.647 1555.77 386.557 1555.01Z" fill="#3A6AB9"/>
<path d="M410 1604.93H407.998V1613.13H410V1604.93Z" fill="#3A6AB9"/>
<path d="M410 1621.33H407.998V1629.52H410V1621.33Z" fill="#3A6AB9"/>
<path d="M153.046 1553.33V1555.71H159.936V1553.33H153.046Z" fill="#3A6AB9"/>
<path d="M166.826 1553.33V1555.71H173.716V1553.33H166.826Z" fill="#3A6AB9"/>
<path d="M180.606 1553.33V1555.71H187.495V1553.33H180.606Z" fill="#3A6AB9"/>
<path d="M194.385 1553.33V1555.71H201.275V1553.33H194.385Z" fill="#3A6AB9"/>
<path d="M208.165 1553.33V1555.71H215.054V1553.33H208.165Z" fill="#3A6AB9"/>
<path d="M221.944 1553.33V1555.71H228.834V1553.33H221.944Z" fill="#3A6AB9"/>
<path d="M235.724 1553.33V1555.71H242.614V1553.33H235.724Z" fill="#3A6AB9"/>
<path d="M249.503 1553.33V1555.71H256.393V1553.33H249.503Z" fill="#3A6AB9"/>
<path d="M263.283 1553.33V1555.71H270.173V1553.33H263.283Z" fill="#3A6AB9"/>
<path d="M277.063 1553.33V1555.71H283.952V1553.33H277.063Z" fill="#3A6AB9"/>
<path d="M290.842 1553.33V1555.71H297.732V1553.33H290.842Z" fill="#3A6AB9"/>
<path d="M304.622 1553.33V1555.71H311.512V1553.33H304.622Z" fill="#3A6AB9"/>
<path d="M318.401 1553.33V1555.71H325.291V1553.33H318.401Z" fill="#3A6AB9"/>
<path d="M332.181 1553.33V1555.71H339.071V1553.33H332.181Z" fill="#3A6AB9"/>
<path d="M345.96 1553.33V1555.71H352.85V1553.33H345.96Z" fill="#3A6AB9"/>
<path d="M359.74 1553.33V1555.71H366.63V1553.33H359.74Z" fill="#3A6AB9"/>
<path d="M139.796 1555.53L139.99 1553.16C140.992 1553.27 142.008 1553.33 143.036 1553.33H146.481V1555.71H143.036C141.943 1555.71 140.862 1555.65 139.796 1555.53Z" fill="#3A6AB9"/>
<path d="M110 1512.31H112.002V1516.41C112.002 1517.63 112.052 1518.84 112.15 1520.03L110.157 1520.26C110.053 1518.99 110 1517.71 110 1516.41V1512.31Z" fill="#3A6AB9"/>
<path d="M111.414 1527.82L113.331 1527.13C113.925 1529.47 114.708 1531.7 115.66 1533.82L113.895 1534.94C112.882 1532.69 112.047 1530.31 111.414 1527.82Z" fill="#3A6AB9"/>
<path d="M117.498 1541.34L119.045 1539.83C120.336 1541.7 121.778 1543.42 123.349 1544.95L122.078 1546.79C120.406 1545.16 118.871 1543.33 117.498 1541.34Z" fill="#3A6AB9"/>
<path d="M133.443 1554.03L134.023 1551.75C132.062 1551.04 130.182 1550.11 128.405 1548.98L127.46 1551.08C129.352 1552.28 131.353 1553.28 133.443 1554.03Z" fill="#3A6AB9"/>
<path d="M366.954 1555.71V1553.33H360.064V1555.71H366.954Z" fill="#3A6AB9"/>
<path d="M353.174 1555.71V1553.33H346.285V1555.71H353.174Z" fill="#3A6AB9"/>
<path d="M339.395 1555.71V1553.33H332.505V1555.71H339.395Z" fill="#3A6AB9"/>
<path d="M325.615 1555.71V1553.33H318.725V1555.71H325.615Z" fill="#3A6AB9"/>
<path d="M311.836 1555.71V1553.33H304.946V1555.71H311.836Z" fill="#3A6AB9"/>
<path d="M298.056 1555.71V1553.33H291.166V1555.71H298.056Z" fill="#3A6AB9"/>
<path d="M284.276 1555.71V1553.33H277.387V1555.71H284.276Z" fill="#3A6AB9"/>
<path d="M270.497 1555.71V1553.33H263.607V1555.71H270.497Z" fill="#3A6AB9"/>
<path d="M256.717 1555.71V1553.33H249.827V1555.71H256.717Z" fill="#3A6AB9"/>
<path d="M242.938 1555.71V1553.33H236.048V1555.71H242.938Z" fill="#3A6AB9"/>
<path d="M229.158 1555.71V1553.33H222.268V1555.71H229.158Z" fill="#3A6AB9"/>
<path d="M215.379 1555.71V1553.33H208.489V1555.71H215.379Z" fill="#3A6AB9"/>
<path d="M201.599 1555.71V1553.33H194.709V1555.71H201.599Z" fill="#3A6AB9"/>
<path d="M187.819 1555.71V1553.33H180.93V1555.71H187.819Z" fill="#3A6AB9"/>
<path d="M174.04 1555.71V1553.33H167.15V1555.71H174.04Z" fill="#3A6AB9"/>
<path d="M160.26 1555.71V1553.33H153.37V1555.71H160.26Z" fill="#3A6AB9"/>
<path d="M483.609 207H489.68V207.5H492.216H492.716V208.5H492.216H489.68V209H483.609V208.5H477.537V209H471.466V208.5H465.395V209H459.323V208.5H453.252V209H447.18V208.5H441.109V209H435.037V208.5H428.966V209H422.895V208.5H416.823V209H410.752V208.5H408.216H407.716V207.5H408.216H410.752V207H416.823V207.5H422.895V207H428.966V207.5H435.037V207H441.109V207.5H447.18V207H453.252V207.5H459.323V207H465.395V207.5H471.466V207H477.537V207.5H483.609V207Z" stroke="#3A6AB9" stroke-dasharray="6 6"/>
<path d="M488.787 201.071C492.692 197.166 499.024 197.166 502.929 201.071C506.834 204.976 506.834 211.308 502.929 215.213C499.024 219.118 492.692 219.118 488.787 215.213L481.716 208.142L488.787 201.071Z" fill="#3A6AB9"/>
<path d="M35.3913 421H29.3199V421.5H26.7842H26.2842V422.5H26.7842H29.3199V423H35.3913V422.5H41.4627V423H47.5342V422.5H53.6056V423H59.677V422.5H65.7485V423H71.8199V422.5H77.8913V423H83.9628V422.5H90.0342V423H96.1056V422.5H102.177V423H108.248V422.5H110.784H111.284V421.5H110.784H108.248V421H102.177V421.5H96.1056V421H90.0342V421.5H83.9628V421H77.8913V421.5H71.8199V421H65.7485V421.5H59.677V421H53.6056V421.5H47.5342V421H41.4628V421.5H35.3913V421Z" stroke="#3A6AB9" stroke-dasharray="6 6"/>
<path d="M21.2132 415.071C17.308 411.166 10.9763 411.166 7.07108 415.071C3.16584 418.976 3.16584 425.308 7.07108 429.213C10.9763 433.118 17.308 433.118 21.2132 429.213L28.2843 422.142L21.2132 415.071Z" fill="#3A6AB9"/>
<path d="M35.3913 926H29.3199V926.5H26.7842H26.2842V927.5H26.7842H29.3199V928H35.3913V927.5H41.4627V928H47.5342V927.5H53.6056V928H59.677V927.5H65.7485V928H71.8199V927.5H77.8913V928H83.9628V927.5H90.0342V928H96.1056V927.5H102.177V928H108.248V927.5H110.784H111.284V926.5H110.784H108.248V926H102.177V926.5H96.1056V926H90.0342V926.5H83.9628V926H77.8913V926.5H71.8199V926H65.7485V926.5H59.677V926H53.6056V926.5H47.5342V926H41.4628V926.5H35.3913V926Z" stroke="#3A6AB9" stroke-dasharray="6 6"/>
<path d="M21.2132 920.071C17.308 916.166 10.9763 916.166 7.07108 920.071C3.16584 923.976 3.16584 930.308 7.07108 934.213C10.9763 938.118 17.308 938.118 21.2132 934.213L28.2843 927.142L21.2132 920.071Z" fill="#3A6AB9"/>
<path d="M35.3913 1429H29.3199V1429.5H26.7842H26.2842V1430.5H26.7842H29.3199V1431H35.3913V1430.5H41.4627V1431H47.5342V1430.5H53.6056V1431H59.677V1430.5H65.7485V1431H71.8199V1430.5H77.8913V1431H83.9628V1430.5H90.0342V1431H96.1056V1430.5H102.177V1431H108.248V1430.5H110.784H111.284V1429.5H110.784H108.248V1429H102.177V1429.5H96.1056V1429H90.0342V1429.5H83.9628V1429H77.8913V1429.5H71.8199V1429H65.7485V1429.5H59.677V1429H53.6056V1429.5H47.5342V1429H41.4628V1429.5H35.3913V1429Z" stroke="#3A6AB9" stroke-dasharray="6 6"/>
<path d="M21.2132 1423.07C17.308 1419.17 10.9763 1419.17 7.07108 1423.07C3.16584 1426.98 3.16584 1433.31 7.07108 1437.21C10.9763 1441.12 17.308 1441.12 21.2132 1437.21L28.2843 1430.14L21.2132 1423.07Z" fill="#3A6AB9"/>
<path d="M483.609 672H489.68V672.5H492.216H492.716V673.5H492.216H489.68V674H483.609V673.5H477.537V674H471.466V673.5H465.395V674H459.323V673.5H453.252V674H447.18V673.5H441.109V674H435.037V673.5H428.966V674H422.895V673.5H416.823V674H410.752V673.5H408.216H407.716V672.5H408.216H410.752V672H416.823V672.5H422.894V672H428.966V672.5H435.037V672H441.109V672.5H447.18V672H453.252V672.5H459.323V672H465.394V672.5H471.466V672H477.537V672.5H483.609V672Z" stroke="#3A6AB9" stroke-dasharray="6 6"/>
<path d="M488.787 666.071C492.692 662.166 499.024 662.166 502.929 666.071C506.834 669.976 506.834 676.308 502.929 680.213C499.024 684.118 492.692 684.118 488.787 680.213L481.716 673.142L488.787 666.071Z" fill="#3A6AB9"/>
<path d="M483.893 1177H489.964V1177.5H492.5H493V1178.5H492.5H489.964V1179H483.893V1178.5H477.821V1179H471.75V1178.5H465.679V1179H459.607V1178.5H453.536V1179H447.464V1178.5H441.393V1179H435.321V1178.5H429.25V1179H423.179V1178.5H417.107V1179H411.036V1178.5H408.5H408V1177.5H408.5H411.036V1177H417.107V1177.5H423.179V1177H429.25V1177.5H435.321V1177H441.393V1177.5H447.464V1177H453.536V1177.5H459.607V1177H465.679V1177.5H471.75V1177H477.821V1177.5H483.893V1177Z" stroke="#3A6AB9" stroke-dasharray="6 6"/>
<path d="M488.929 1171.07C492.834 1167.17 499.166 1167.17 503.071 1171.07C506.976 1174.98 506.976 1181.31 503.071 1185.21C499.166 1189.12 492.834 1189.12 488.929 1185.21L481.858 1178.14L488.929 1171.07Z" fill="#3A6AB9"/>
<path d="M288.796 125.189L288.99 122.818C289.992 122.934 291.008 122.993 292.036 122.993H295.481V125.375H292.036C290.943 125.375 289.862 125.312 288.796 125.189Z" fill="#3A6AB9"/>
<path d="M259 81.972H261.002V86.0706C261.002 87.2938 261.052 88.5024 261.15 89.6938L259.157 89.9245C259.053 88.6565 259 87.3709 259 86.0706V81.972Z" fill="#3A6AB9"/>
<path d="M260.414 97.4839L262.331 96.7932C262.925 99.127 263.708 101.363 264.66 103.477L262.895 104.602C261.882 102.351 261.047 99.9697 260.414 97.4839Z" fill="#3A6AB9"/>
<path d="M266.498 111.005L268.045 109.493C269.336 111.362 270.778 113.078 272.349 114.614L271.078 116.454C269.406 114.82 267.871 112.994 266.498 111.005Z" fill="#3A6AB9"/>
<path d="M282.443 123.692L283.023 121.413C281.062 120.705 279.182 119.773 277.405 118.641L276.46 120.741C278.352 121.946 280.353 122.939 282.443 123.692Z" fill="#3A6AB9"/>
<path d="M259 73.7748H261.002L261.002 65.5776H259L259 73.7748Z" fill="#3A6AB9"/>
<path d="M259 57.3804H261.002V49.1832H259V57.3804Z" fill="#3A6AB9"/>
<path d="M259 40.986H261.002V32.7888H259V40.986Z" fill="#3A6AB9"/>
<path d="M259 24.5916H261.002V16.3944H259V24.5916Z" fill="#3A6AB9"/>
<path d="M259 8.19722H261.002V0L259 0V8.19722Z" fill="#3A6AB9"/>
<path d="M350.599 125.375V122.993L343.709 122.993V125.375L350.599 125.375Z" fill="#3A6AB9"/>
<path d="M336.819 125.375V122.993H329.93V125.375H336.819Z" fill="#3A6AB9"/>
<path d="M323.04 125.375V122.993H316.15V125.375H323.04Z" fill="#3A6AB9"/>
<path d="M309.26 125.375V122.993H302.37V125.375H309.26Z" fill="#3A6AB9"/>
<path d="M302.046 122.994V125.376H308.936V122.994H302.046Z" fill="#3A6AB9"/>
<path d="M315.826 122.994V125.376H322.716V122.994H315.826Z" fill="#3A6AB9"/>
<path d="M329.606 122.994V125.376H336.495V122.994H329.606Z" fill="#3A6AB9"/>
<path d="M343.385 122.994V125.376L350.275 125.376V122.994L343.385 122.994Z" fill="#3A6AB9"/>
</svg>
