<svg width="117" height="36" viewBox="0 0 117 36" fill="none" xmlns="http://www.w3.org/2000/svg">
<path d="M81.8131 11.7789H80.6405V18.2813H81.8131V11.7789Z" fill="#083160"/>
<path d="M87.7293 17.1088H87.676L85.7573 11.8322V11.7789H83.8385V18.3346H85.0644V13.0048L87.0364 18.2813V18.3346H88.9019V11.7789H87.7293V17.1088Z" fill="#083160"/>
<path d="M92.1533 12.8982H93.1659C94.2852 12.8982 94.5517 13.6444 94.5517 14.9768C94.5517 16.5758 94.1786 17.2154 93.1659 17.2154H92.1533V12.8982ZM93.1659 11.7789H90.9807V18.2813H93.1659C95.4045 18.2813 95.7243 16.6824 95.7243 14.9235C95.7776 12.7383 95.0314 11.7789 93.1659 11.7789Z" fill="#083160"/>
<path d="M98.6557 11.7789H97.4832V18.2813H98.6557V11.7789Z" fill="#083160"/>
<path d="M102.973 12.8449L103.666 15.883H102.013L102.759 12.8449H102.973ZM103.879 11.8856V11.8323H101.8L100.201 18.3347H101.374L101.694 17.0022H103.825L104.199 18.3347H105.371L103.879 11.8856Z" fill="#083160"/>
<path d="M81.8667 20.7332H80.6941V27.2356H84.2651V26.1163H81.8667V20.7332Z" fill="#083160"/>
<path d="M87.0898 20.7332H85.9172V27.2356H87.0898V20.7332Z" fill="#083160"/>
<path d="M92.3662 25.53L90.9805 20.7865V20.7332H89.1683V27.2356H90.3409V22.0656L91.78 26.9691H92.9525L94.3916 22.0656V27.2356H95.5642V20.7332H93.8053L92.3662 25.53Z" fill="#083160"/>
<path d="M98.8155 20.7332H97.6429V27.2356H98.8155V20.7332Z" fill="#083160"/>
<path d="M100.201 21.8524H101.853V27.2356H103.026V21.8524H104.625V20.7332H100.201V21.8524Z" fill="#083160"/>
<path d="M106.064 27.2356H110.115V26.1163H107.237V24.5173H109.528V23.4514H107.237V21.7991H110.115V20.7332H106.064V27.2356Z" fill="#083160"/>
<path d="M113.099 21.7991H114.112C115.231 21.7991 115.498 22.5453 115.498 23.8778C115.498 25.4767 115.125 26.1163 114.112 26.1163H113.099V21.7991ZM114.112 20.7332H111.927V27.2356H114.112C116.351 27.2356 116.67 25.6366 116.67 23.8778C116.724 21.6392 115.978 20.7332 114.112 20.7332Z" fill="#083160"/>
<path d="M76.643 11.8323H75.4705V27.2355H76.643V11.8323Z" fill="#E67015"/>
<path d="M47.2759 21.3727L49.7809 14.9769H49.8342L52.126 21.3727H47.2759ZM72.8059 26.5427C72.0064 26.4361 71.6866 25.9564 70.7805 24.6772L66.3567 18.3347L69.8744 13.5378C70.2475 13.0582 70.9937 12.7384 71.6866 12.6318C72.113 12.4719 72.2196 12.0455 72.2729 11.8856H67.3694C67.3694 11.9922 67.4227 12.4719 67.9557 12.6851C68.4887 12.8983 68.7552 13.3779 68.2755 14.0175L65.7172 17.4286L63.4786 14.1241C62.7857 13.0582 63.2121 12.6851 63.8517 12.5785C64.3314 12.4719 64.3847 11.9922 64.3847 11.8856H57.8823C57.8823 11.9922 57.9356 12.4186 58.4686 12.6318C59.1081 12.7917 59.6944 13.2181 60.1741 13.9109L63.8517 19.454L60.334 24.3574C59.6944 25.3168 59.4279 25.7432 58.8949 26.063C58.4686 26.3828 58.0422 26.2229 57.829 26.063C57.4026 25.6899 57.0828 25.1569 56.8163 24.5173C55.9635 22.4387 53.1387 15.1901 51.6996 11.5658H50.154C48.1819 16.3627 45.3571 23.5047 44.5043 25.1569C44.0247 26.063 43.2785 26.4361 42.6389 26.4894C42.6389 26.4894 40.9333 26.7559 40.7202 25.53V24.6239V14.7637C40.7202 13.5378 41.1465 12.7917 42.3191 12.6318C42.8521 12.4719 42.8521 11.9389 42.8521 11.9389H38.6415L32.6721 23.2915L27.0224 11.9389H22.4921C22.4921 11.9389 22.4921 12.5785 22.9717 12.6318C23.8778 12.6851 24.624 13.0049 24.7306 14.5505V24.0376C24.7306 24.5706 24.6773 25.0503 24.624 25.4767C24.5174 26.063 24.1443 26.3295 23.4514 26.4894C22.8652 26.6493 22.8119 27.129 22.8119 27.2356H27.7686V27.1823C27.7686 27.0224 27.662 26.6493 27.129 26.4894C26.3829 26.3295 26.0098 26.063 25.9565 25.4767C25.8499 25.0503 25.8499 24.5706 25.8499 24.0376V15.9896H25.9032L31.3396 27.2356H31.8726L37.5222 16.3094H37.5755V24.6772C37.5755 25.2635 37.5755 25.5833 37.4689 26.0097C37.4156 26.3295 36.9893 26.4361 36.3497 26.5427C35.7634 26.7026 35.7634 27.1823 35.7634 27.2889H47.0094C47.0094 27.2889 47.0094 26.7559 46.4231 26.4894C45.8368 26.2762 45.7302 25.6899 45.9434 24.997L46.9028 22.3854H52.6057L53.5651 24.9437C53.8316 25.6899 53.7783 26.2229 53.192 26.4894C52.5524 26.7026 52.4991 27.1823 52.4991 27.2889H61.7731C61.7731 27.2889 61.8264 26.7559 61.1868 26.4894C60.8137 26.2762 60.7604 25.6899 61.4533 24.6772L64.4913 20.4666L67.5826 24.9437C68.3288 26.1163 68.009 26.4894 67.476 26.596C66.943 26.8092 66.8897 27.2356 66.8897 27.3422H73.2855C73.1789 27.2356 73.2322 26.8092 72.8059 26.5427Z" fill="#083160"/>
<path d="M9.22077 0L13.2715 3.5177C14.7638 4.85016 15.1369 6.55572 15.1369 8.36787C15.1369 12.6317 10.7131 14.6571 9.22077 18.2814C8.79438 19.2941 8.47459 20.4133 8.58119 21.5326C8.63449 21.959 8.84768 23.7178 9.38067 23.8244C13.2182 24.7305 16.3095 22.0123 15.0836 17.7484C14.8171 16.5758 14.6039 16.0961 14.0709 15.4033H14.3374L18.3881 18.9743C19.081 19.9336 19.7206 20.5732 19.7206 21.7991C19.9338 25.2102 17.1089 27.8218 14.0709 27.8218C12.6852 27.8218 11.5659 27.3421 10.7131 26.6493L6.07616 22.5986C4.6904 21.426 4.37061 19.9869 4.37061 18.1748C4.37061 14.1241 7.62182 11.779 9.11417 8.31457C9.70046 6.87551 9.91365 5.54305 9.91365 3.99739C9.91365 2.77152 9.91365 1.17257 9.06087 0.159896L9.22077 0Z" fill="#E67015"/>
<path d="M19.2406 31.0197L24.0907 35.177L23.8775 35.2303C22.5451 34.1643 20.9994 33.6313 19.134 33.578C17.4284 33.5247 15.7762 33.9511 14.2305 34.5374C13.5376 34.8039 12.7914 35.0704 12.0986 35.3902C11.0326 35.8166 9.86003 36.0831 8.74076 35.9765C6.98191 35.7633 5.38295 34.4841 3.99719 33.2582L0.0531006 29.8471C0.0531006 29.8471 0.266295 29.7938 0.319593 29.7938C2.66473 31.1263 4.79667 31.7126 7.62149 31.3395C8.74076 31.1796 12.7914 29.2076 13.964 29.2076C14.7102 29.2076 15.5097 29.101 16.2025 29.3142C17.5883 29.6872 18.1746 30.2202 19.2406 31.0197Z" fill="#083160"/>
</svg>
