<svg width="143" height="80" viewBox="0 0 143 80" fill="none" xmlns="http://www.w3.org/2000/svg">
<g id="1">
<path id="path24" d="M41.7478 12.728H30.4702V0.246853H39.9507V2.67604H35.1352V4.81394H38.749V7.23213H35.1352V10.2988H41.7478V12.728Z" fill="black"/>
<path id="path28" d="M77.5334 8.81782C77.5334 10.0516 76.914 11.0574 75.6839 11.8268C74.4473 12.6017 72.7767 12.981 70.6612 12.981C69.4334 12.981 68.3691 12.8958 67.4574 12.7089C66.548 12.533 65.6909 12.3022 64.8992 12.0192V9.0404H65.3157C66.1052 9.56801 66.982 9.9747 67.9503 10.2632C68.923 10.5463 69.8652 10.6837 70.7615 10.6837C70.9884 10.6837 71.2981 10.6672 71.671 10.6425C72.0439 10.6012 72.3602 10.5463 72.5826 10.4666C72.8771 10.3622 73.1257 10.244 73.3133 10.0736C73.503 9.92524 73.5881 9.69991 73.5881 9.39763C73.5881 9.12284 73.4528 8.88377 73.1759 8.68317C72.9076 8.48806 72.4998 8.34242 71.9698 8.22426C71.4224 8.11434 70.8379 8.00443 70.2141 7.9055C69.5904 7.81756 69.0146 7.68566 68.4803 7.53453C67.235 7.19378 66.343 6.74037 65.7977 6.14132C65.2503 5.55601 64.9755 4.82505 64.9755 3.9567C64.9755 2.79432 65.5949 1.83254 66.8337 1.10433C68.0659 0.362386 69.6558 -0.000343323 71.5968 -0.000343323C72.5805 -0.000343323 73.5423 0.0765991 74.4844 0.233232C75.4419 0.392613 75.6643 0.590465 75.9086 0.892739V3.77259L75.9544 3.71488C75.3568 3.29719 75.2259 2.95645 74.3623 2.67616C73.503 2.39312 72.6154 2.25847 71.719 2.25847C71.3984 2.25847 71.0843 2.28045 70.7703 2.31892C70.4497 2.35465 70.1509 2.43159 69.8652 2.53052C69.6013 2.6157 69.3832 2.7476 69.1956 2.92622C69.0146 3.10484 68.9208 3.30818 68.9208 3.53077C68.9208 3.86602 69.067 4.11608 69.3679 4.28371C69.6624 4.46507 70.2229 4.62995 71.0494 4.77834C71.5968 4.87451 72.1159 4.96245 72.6153 5.05588C73.1126 5.14107 73.6535 5.26472 74.2205 5.4241C75.3524 5.74012 76.1877 6.16605 76.7286 6.71014C77.2629 7.25424 77.5334 7.95771 77.5334 8.81782Z" fill="black"/>
<path id="path32" d="M92.2417 4.334C92.2417 3.98226 92.1239 3.68823 91.8971 3.43267C91.6616 3.17436 91.4021 2.993 91.0945 2.89132C90.6911 2.75942 90.2941 2.69072 89.9147 2.66324C89.5243 2.65775 89.0139 2.64676 88.3727 2.64676H88.3008V6.38122H88.822C89.4806 6.38122 90.0237 6.35649 90.4555 6.28504C90.8786 6.21634 91.245 6.08719 91.5373 5.87285C91.7815 5.70247 91.956 5.49088 92.0716 5.23807C92.1872 4.99076 92.2417 4.69398 92.2417 4.334ZM96.8719 4.24881C96.8719 4.81489 96.7519 5.36448 96.5142 5.90307C96.2786 6.44717 95.945 6.89783 95.5022 7.27155C94.909 7.75794 94.2351 8.14265 93.4849 8.40371C92.7455 8.64552 91.8252 8.77743 90.7238 8.77743H88.3008V12.9131H84.3903V0.247799H90.8045C91.7685 0.247799 92.5776 0.324741 93.2471 0.462139C93.9036 0.599536 94.4794 0.813877 94.9897 1.08592C95.6026 1.42667 96.0627 1.85535 96.3921 2.37196C96.7083 2.89132 96.8719 3.51511 96.8719 4.24881Z" fill="black"/>
<path id="path36" d="M17.5959 12.8355C17.5959 12.8355 14.6559 13.2477 12.6255 6.62515L10.4816 12.9619H7.81214C7.81214 12.9619 5.37603 12.9427 3.25833 6.11403C3.25833 6.11403 1.71422 1.42878 0 0.340595H6.18734L9.04219 8.35636L11.3126 2.55819C11.3126 2.55819 11.7313 0.92316 10.5034 0.412042H15.3691L18.8913 8.66413L21.0897 2.24767C21.0897 2.24767 21.6132 1.17322 20.7037 0.494479L25.0002 0.307619L20.5183 12.7448L17.5959 12.8355Z" fill="black"/>
<path id="path40" d="M52.9747 10.2993V3.5751C53.0423 0.794183 54.4425 0.233602 54.4425 0.233602H51.1624V0.247342H50.0806V0.233602H46.8157C46.8157 0.233602 48.2094 0.794183 48.2704 3.5751V10.3048C48.2704 10.3048 48.2704 12.1295 46.8419 12.7285H49.9279H51.3237H54.4098H54.4032H58.8785C58.8785 12.7285 59.2558 12.451 59.6637 11.7695C59.9537 11.2941 60.1762 10.2993 60.1762 10.2993H52.9747Z" fill="black"/>
<path id="path44" d="M142.255 0.233113H136.846C136.846 0.233113 138.098 0.741485 138.283 3.17342V7.84218L137.369 7.90263L130.321 0.246854H127.669V0.233113H124.388C124.388 0.233113 125.789 0.793695 125.852 3.57462V10.3043C125.852 10.3043 125.852 12.129 124.417 12.728H130.436C129.224 12.2252 129.034 10.8237 129.016 10.417V4.16543L136.726 12.728H140.813V3.2696C140.97 0.755223 142.255 0.233113 142.255 0.233113Z" fill="black"/>
<path id="path48" d="M119.77 0.233281H116.496V0.247021H115.818V0.233281H112.544C112.544 0.233281 113.77 0.730659 113.975 3.06092V8.04295C113.975 8.94702 113.735 9.60378 113.234 10.016C112.747 10.4227 111.969 10.6205 110.904 10.6205C109.818 10.6205 109.037 10.4062 108.564 9.98574C108.08 9.55981 107.831 8.91679 107.831 8.04295V3.01695C108.056 0.71692 109.269 0.233281 109.269 0.233281H105.993V0.247021H105.363V0.233281H102.089C102.089 0.233281 103.465 0.791114 103.548 3.53082V8.21607C103.548 9.75217 104.176 10.9338 105.413 11.7499C106.643 12.5743 108.479 12.981 110.904 12.981C112.058 12.981 113.087 12.8848 113.975 12.7035V13.1294H118.341V2.95924C118.583 0.71692 119.77 0.233281 119.77 0.233281Z" fill="black"/>
<path id="path52" d="M30.2195 79.8164V69.1132H33.1659C33.8289 69.1132 34.3393 69.1681 34.6904 69.2698C35.1789 69.4099 35.5977 69.6682 35.9423 70.0337C36.3937 70.5119 36.7296 71.1219 36.9564 71.8611C37.1789 72.6058 37.2923 73.4522 37.2923 74.4057C37.2923 75.2191 37.216 75.9391 37.0633 76.5656C36.9106 77.1949 36.7165 77.7142 36.4788 78.1264C36.2432 78.5359 35.9837 78.8601 35.7002 79.0937C35.4189 79.3328 35.0808 79.5114 34.6817 79.635C34.2804 79.7532 33.8202 79.8164 33.3055 79.8164H30.2195ZM31.3514 78.5524H33.1768C33.7395 78.5524 34.1844 78.4891 34.5072 78.3572C34.8256 78.2226 35.0808 78.0412 35.2727 77.8022C35.541 77.4642 35.7504 77.0108 35.8987 76.4474C36.0491 75.8786 36.1255 75.1916 36.1255 74.3837C36.1255 73.2653 35.9772 72.4079 35.6849 71.8061C35.3883 71.2016 35.0328 70.8031 34.6141 70.5998C34.3109 70.4514 33.8202 70.3772 33.1507 70.3772H31.3514V78.5524Z" fill="black"/>
<path id="path56" d="M42.7577 78.8586C42.3651 79.2708 41.9922 79.5648 41.6323 79.7352C41.2725 79.9055 40.8886 79.9907 40.4743 79.9907C39.7938 79.9907 39.2726 79.7846 38.9062 79.3697C38.5398 78.952 38.3566 78.4189 38.3566 77.7731C38.3566 77.3912 38.4264 77.0449 38.5659 76.7317C38.7033 76.4156 38.8865 76.1683 39.1068 75.976C39.3336 75.7864 39.5844 75.6435 39.8636 75.5445C40.0708 75.4786 40.3805 75.4099 40.797 75.3494C41.6433 75.223 42.267 75.0719 42.6683 74.896C42.6727 74.7147 42.677 74.602 42.677 74.5553C42.677 74.0167 42.5745 73.6402 42.376 73.4231C42.11 73.1236 41.7109 72.9752 41.1809 72.9752C40.688 72.9752 40.326 73.0824 40.0861 73.3022C39.8527 73.5193 39.6782 73.9013 39.5648 74.4536L38.5398 74.275C38.6335 73.7282 38.7884 73.283 38.9999 72.945C39.2137 72.607 39.5256 72.3432 39.929 72.1646C40.3325 71.9805 40.7992 71.8898 41.3357 71.8898C41.8635 71.8898 42.291 71.9667 42.6225 72.1234C42.954 72.2772 43.1961 72.4751 43.3531 72.7114C43.508 72.9477 43.617 73.2445 43.6781 73.6045C43.7108 73.8298 43.7304 74.231 43.7304 74.8136V76.5668C43.7304 77.7896 43.7522 78.5645 43.798 78.886C43.8438 79.2076 43.9332 79.5181 44.0641 79.8176H42.9671C42.8602 79.5456 42.7882 79.2268 42.7577 78.8586ZM42.6683 75.9265C42.2866 76.1216 41.7152 76.2865 40.9563 76.4211C40.5244 76.5008 40.2169 76.586 40.0403 76.6849C39.8614 76.7811 39.7197 76.924 39.6237 77.1109C39.5277 77.3005 39.4776 77.5066 39.4776 77.7347C39.4776 78.0864 39.5844 78.3777 39.7982 78.6113C40.0054 78.8448 40.3172 78.9602 40.7251 78.9602C41.1307 78.9602 41.4906 78.8503 41.8046 78.6305C42.1187 78.4079 42.3521 78.1056 42.5004 77.7209C42.6138 77.4269 42.6683 76.9845 42.6683 76.4074V75.9265Z" fill="black"/>
<path id="path60" d="M45.3475 79.8164V72.0672H46.2941V73.2406C46.5318 72.691 46.7564 72.3255 46.9614 72.1524C47.1621 71.9765 47.3889 71.8886 47.6353 71.8886C47.9887 71.8886 48.3463 72.0287 48.7127 72.3118L48.3507 73.5319C48.0955 73.3422 47.8404 73.2461 47.5808 73.2461C47.3496 73.2461 47.1446 73.334 46.9614 73.5044C46.7782 73.6802 46.6517 73.9193 46.5732 74.2243C46.4555 74.6915 46.3944 75.1999 46.3944 75.7549V79.8164H45.3475Z" fill="black"/>
<path id="path64" d="M53.5769 77.3179L54.663 77.4883C54.4929 78.2825 54.1723 78.8953 53.7121 79.3349C53.2498 79.7719 52.6566 79.9917 51.9369 79.9917C51.0339 79.9917 50.3142 79.6427 49.7843 78.9447C49.2543 78.2468 48.9882 77.2657 48.9882 76.0044C48.9882 74.7019 49.2587 73.6907 49.793 72.9707C50.3317 72.248 51.0252 71.888 51.8823 71.888C52.7089 71.888 53.385 72.2397 53.9084 72.946C54.4362 73.6522 54.6979 74.6442 54.6979 75.9247C54.6979 76.0017 54.6979 76.1198 54.6936 76.2737H50.0721C50.1092 77.1283 50.3033 77.7796 50.6501 78.2303C50.9947 78.6837 51.4265 78.9118 51.9456 78.9118C52.3294 78.9118 52.6566 78.7826 52.9292 78.5298C53.2018 78.2797 53.4177 77.8758 53.5769 77.3179ZM50.131 75.1938H53.59C53.542 74.5425 53.4112 74.0534 53.1931 73.7264C52.8572 73.2235 52.4254 72.9707 51.8932 72.9707C51.4112 72.9707 51.0034 73.1713 50.6763 73.5752C50.3491 73.9764 50.1681 74.5178 50.131 75.1938Z" fill="black"/>
<path id="path68" d="M61.5938 78.6379L61.7464 79.8003C61.452 79.8772 61.1859 79.9185 60.9526 79.9185C60.5709 79.9185 60.2765 79.8415 60.0649 79.6904C59.8555 79.5392 59.7094 79.3414 59.6222 79.0941C59.5371 78.8495 59.4935 78.3329 59.4935 77.5442V73.0843H58.7236V72.0648H59.4935V70.144L60.5404 69.3553V72.0648H61.5938V73.0843H60.5404V77.6184C60.5404 77.9949 60.5578 78.2312 60.5927 78.3411C60.632 78.4483 60.6908 78.5335 60.7737 78.5967C60.8566 78.6599 60.9765 78.6929 61.1314 78.6929C61.2492 78.6929 61.4018 78.6736 61.5938 78.6379Z" fill="black"/>
<path id="path72" d="M62.2285 75.9385C62.2285 74.504 62.5469 73.4406 63.1859 72.7509C63.7202 72.1765 64.3658 71.888 65.1357 71.888C65.9884 71.888 66.6841 72.237 67.2228 72.935C67.7659 73.633 68.0341 74.6002 68.0341 75.8286C68.0341 76.8261 67.9142 77.612 67.6765 78.1836C67.4387 78.7551 67.0898 79.2003 66.634 79.5163C66.1738 79.8323 65.6765 79.9917 65.1357 79.9917C64.2698 79.9917 63.5676 79.6455 63.031 78.9475C62.4967 78.2522 62.2285 77.252 62.2285 75.9385ZM63.308 75.9385C63.308 76.9332 63.4803 77.6752 63.8271 78.1698C64.176 78.6644 64.61 78.9118 65.1357 78.9118C65.6569 78.9118 66.0909 78.6617 66.4377 78.1671C66.7823 77.6697 66.9546 76.9113 66.9546 75.8945C66.9546 74.9382 66.7823 74.21 66.4333 73.7154C66.0844 73.2235 65.6525 72.9762 65.1357 72.9762C64.61 72.9762 64.176 73.2235 63.8271 73.7126C63.4803 74.2045 63.308 74.9492 63.308 75.9385Z" fill="black"/>
<path id="path76" d="M78.8196 76.0622L79.9537 76.4222C79.7159 77.5846 79.2885 78.4694 78.6756 79.0849C78.0562 79.6922 77.3038 80 76.4118 80C75.4893 80 74.739 79.7637 74.1633 79.2965C73.5853 78.8239 73.1448 78.1451 72.8438 77.2548C72.545 76.3617 72.3923 75.4054 72.3923 74.3859C72.3923 73.2703 72.5624 72.3003 72.9027 71.4704C73.2429 70.6377 73.7271 70.0085 74.3552 69.5798C74.9811 69.1456 75.6747 68.934 76.4293 68.934C77.2864 68.934 78.0039 69.2061 78.5884 69.7502C79.1707 70.2943 79.5785 71.0609 79.8054 72.0502L78.6909 72.3799C78.4946 71.5995 78.2067 71.0334 77.8294 70.6762C77.4521 70.3217 76.9789 70.1459 76.4053 70.1459C75.7488 70.1459 75.1992 70.341 74.7587 70.7367C74.3181 71.1324 74.0062 71.66 73.8274 72.325C73.6486 72.9872 73.5591 73.6715 73.5591 74.3777C73.5591 75.29 73.666 76.0814 73.8754 76.7629C74.0891 77.4389 74.4184 77.9445 74.8677 78.2853C75.3148 78.6205 75.7968 78.7854 76.3202 78.7854C76.9549 78.7854 77.4892 78.5573 77.9298 78.1012C78.3681 77.6423 78.6669 76.9635 78.8196 76.0622Z" fill="black"/>
<path id="path80" d="M80.822 75.9385C80.822 74.504 81.1404 73.4406 81.7794 72.7509C82.3115 72.1765 82.9593 71.888 83.727 71.888C84.5797 71.888 85.2776 72.237 85.8163 72.935C86.3572 73.633 86.6276 74.6002 86.6276 75.8286C86.6276 76.8261 86.5055 77.612 86.2678 78.1836C86.0301 78.7551 85.6811 79.2003 85.2253 79.5163C84.7673 79.8323 84.2679 79.9917 83.727 79.9917C82.8611 79.9917 82.1589 79.6455 81.6245 78.9475C81.0902 78.2522 80.822 77.252 80.822 75.9385ZM81.9015 75.9385C81.9015 76.9332 82.0738 77.6752 82.4184 78.1698C82.7695 78.6644 83.2036 78.9118 83.727 78.9118C84.2482 78.9118 84.6822 78.6617 85.0312 78.1671C85.3736 77.6697 85.5459 76.9113 85.5459 75.8945C85.5459 74.9382 85.3736 74.21 85.0268 73.7154C84.6779 73.2235 84.2439 72.9762 83.727 72.9762C83.2036 72.9762 82.7695 73.2235 82.4184 73.7126C82.0738 74.2045 81.9015 74.9492 81.9015 75.9385Z" fill="black"/>
<path id="path84" d="M87.8589 79.8164V72.0672H88.7967V73.1499C88.993 72.7707 89.2525 72.4656 89.5731 72.2376C89.8959 72.004 90.2666 71.8886 90.6767 71.8886C91.1347 71.8886 91.5098 72.0067 91.8042 72.2458C92.0965 72.4849 92.3058 72.8174 92.4258 73.2461C92.9165 72.342 93.5533 71.8886 94.3385 71.8886C94.9535 71.8886 95.4268 72.1002 95.7561 72.5289C96.0854 72.9548 96.2533 73.6088 96.2533 74.4936V79.8164H95.2087V74.9333C95.2087 74.4057 95.1738 74.0292 95.1062 73.7984C95.0364 73.5676 94.9121 73.3807 94.7376 73.2406C94.5566 73.1004 94.3472 73.0262 94.1051 73.0262C93.6689 73.0262 93.3091 73.2103 93.0212 73.5703C92.7333 73.9331 92.5872 74.5129 92.5872 75.3098V79.8164H91.5381V74.7794C91.5381 74.1941 91.4531 73.7572 91.283 73.4632C91.1107 73.1746 90.8315 73.0262 90.4433 73.0262C90.1467 73.0262 89.8741 73.1252 89.6233 73.3203C89.3703 73.5154 89.1893 73.8012 89.078 74.1721C88.9646 74.5486 88.9057 75.0899 88.9057 75.7934V79.8164H87.8589Z" fill="black"/>
<path id="path88" d="M97.8114 79.8164V72.0672H98.7492V73.1499C98.9455 72.7707 99.2028 72.4656 99.5256 72.2376C99.8484 72.004 100.217 71.8886 100.629 71.8886C101.087 71.8886 101.464 72.0067 101.757 72.2458C102.049 72.4849 102.256 72.8174 102.378 73.2461C102.869 72.342 103.506 71.8886 104.291 71.8886C104.906 71.8886 105.379 72.1002 105.706 72.5289C106.038 72.9548 106.206 73.6088 106.206 74.4936V79.8164H105.161V74.9333C105.161 74.4057 105.126 74.0292 105.059 73.7984C104.991 73.5676 104.867 73.3807 104.688 73.2406C104.509 73.1004 104.3 73.0262 104.058 73.0262C103.621 73.0262 103.262 73.2103 102.972 73.5703C102.686 73.9331 102.542 74.5129 102.542 75.3098V79.8164H101.491V74.7794C101.491 74.1941 101.403 73.7572 101.233 73.4632C101.063 73.1746 100.784 73.0262 100.396 73.0262C100.099 73.0262 99.8266 73.1252 99.5758 73.3203C99.325 73.5154 99.1418 73.8012 99.0305 74.1721C98.9171 74.5486 98.8604 75.0899 98.8604 75.7934V79.8164H97.8114Z" fill="black"/>
<path id="path90" d="M107.769 69.1155H108.818V70.6295H107.769V69.1155ZM107.769 72.0667H108.818V79.8159H107.769V72.0667Z" fill="black"/>
<path id="path94" d="M112.71 78.6379L112.86 79.8003C112.566 79.8772 112.302 79.9185 112.069 79.9185C111.687 79.9185 111.393 79.8415 111.181 79.6904C110.972 79.5392 110.823 79.3414 110.738 79.0941C110.653 78.8495 110.61 78.3329 110.61 77.5442V73.0843H109.84V72.0648H110.61V70.144L111.654 69.3553V72.0648H112.71V73.0843H111.654V77.6184C111.654 77.9949 111.672 78.2312 111.709 78.3411C111.748 78.4483 111.807 78.5335 111.89 78.5967C111.973 78.6599 112.093 78.6929 112.248 78.6929C112.365 78.6929 112.518 78.6736 112.71 78.6379Z" fill="black"/>
<path id="path98" d="M34.9197 24.989C45.3643 30.32 56.1272 40.416 61.2655 56.3403C63.9241 47.426 67.0254 40.7402 71.0929 35.6318C76.1527 40.9793 80.5058 47.8327 83.2582 56.3403C88.3725 39.1492 95.1378 30.2623 107.334 24.989C98.564 24.989 89.2558 33.5186 85.0858 41.1085C82.8634 36.8794 79.7141 33.296 76.0458 30.5756C78.7567 28.3388 81.8297 26.5114 85.3475 24.989C81.4873 24.989 77.5179 26.6378 73.9368 29.1384C68.7331 25.9151 62.7311 24.346 56.9037 24.989C60.9668 27.0637 65.0778 29.8501 68.8879 33.4362C66.5173 35.8516 64.513 38.5336 63.0975 41.1085C57.462 30.397 45.8681 23.7772 34.9197 24.989Z" fill="#00A6E6"/>
</g>
</svg>
