<svg width="102" height="80" viewBox="0 0 102 80" fill="none" xmlns="http://www.w3.org/2000/svg">
<g id="1">
<path id="path999" d="M92.034 31.4066C92.6006 33.5651 94.813 34.8602 96.9985 34.2666C99.1571 33.7 100.452 31.4876 99.8586 29.3021C99.292 27.1435 97.0795 25.8484 94.894 26.442C92.7625 27.0356 91.4673 29.2481 92.034 31.4066Z" fill="#2A4C87"/>
<path id="path1001" d="M86.5566 35.7237C88.0136 35.319 88.904 33.808 88.4992 32.351C88.0945 30.8941 86.5836 30.0037 85.1266 30.4084C83.6696 30.8131 82.7792 32.3241 83.1839 33.7811C83.5616 35.2381 85.0726 36.1015 86.5566 35.7237Z" fill="#2A4C87"/>
<path id="path1003" d="M78.4622 37.1265C79.5415 36.8297 80.189 35.7235 79.8922 34.6442C79.5954 33.5649 78.4892 32.9174 77.4099 33.2142C76.3307 33.511 75.6831 34.6172 75.9799 35.6965C76.2767 36.7757 77.383 37.4233 78.4622 37.1265Z" fill="#2A4C87"/>
<path id="path1005" d="M72.1752 38.0706C72.8498 37.8818 73.2545 37.1802 73.0926 36.5057C72.9307 35.8312 72.2022 35.4265 71.5277 35.5883C70.8531 35.7772 70.4484 36.4787 70.6103 37.1533C70.7722 37.8278 71.4737 38.2325 72.1752 38.0706Z" fill="#2E4E88"/>
<path id="path1007" d="M89.0386 23.2043C90.0639 24.9581 92.3034 25.5786 94.0572 24.5533C95.811 23.528 96.4315 21.2886 95.4062 19.5348C94.3809 17.781 92.1415 17.1604 90.3877 18.1857C88.6339 19.211 88.0133 21.4505 89.0386 23.2043Z" fill="#1F3D70"/>
<path id="path1009" d="M80.9173 27.8719C81.6188 29.113 83.1837 29.5177 84.4248 28.8162C85.666 28.1147 86.0707 26.5498 85.3692 25.3086C84.6677 24.0675 83.1028 23.6628 81.8616 24.3643C80.6474 25.0658 80.2157 26.6307 80.9173 27.8719Z" fill="#1F3D70"/>
<path id="path1011" d="M75.1434 29.086C74.253 29.5987 73.9562 30.7049 74.4689 31.5953C74.9815 32.4857 76.0877 32.7825 76.9781 32.2698C77.8685 31.7572 78.1653 30.6509 77.6527 29.7606C77.167 28.8971 76.0338 28.6004 75.1434 29.086Z" fill="#1F3D70"/>
<path id="path1013" d="M69.9899 32.8095C69.4233 33.1332 69.2075 33.8617 69.5313 34.4283C69.855 34.9949 70.5835 35.2108 71.1501 34.887C71.7168 34.5632 71.9326 33.8347 71.6088 33.2681C71.285 32.7015 70.5565 32.4857 69.9899 32.8095Z" fill="#1F3D70"/>
<path id="path1015" d="M88.6341 16C89.9292 14.7049 89.9292 12.6273 88.6341 11.3322C87.339 10.0371 85.2614 10.0371 83.9663 11.3322C82.6712 12.6273 82.6712 14.7049 83.9663 16C85.2345 17.2951 87.339 17.2951 88.6341 16Z" fill="#194C88"/>
<path id="path1017" d="M80.5667 19.3728C79.6223 18.4285 78.1113 18.4285 77.194 19.3728C76.2496 20.3172 76.2496 21.8281 77.194 22.7455C78.1383 23.6898 79.6493 23.6898 80.5667 22.7455C81.511 21.8011 81.511 20.2902 80.5667 19.3728Z" fill="#194C88"/>
<path id="path1019" d="M71.9324 25.6591C71.2849 26.3067 71.2849 27.3589 71.9324 28.0065C72.58 28.654 73.6323 28.654 74.2798 28.0065C74.9274 27.3589 74.9274 26.3067 74.2798 25.6861C73.6323 25.0115 72.58 25.0115 71.9324 25.6591Z" fill="#194C88"/>
<path id="path1021" d="M67.8583 32.0806C68.29 32.5123 68.9915 32.5123 69.4232 32.0806C69.8549 31.6489 69.8549 30.9474 69.4232 30.5157C68.9915 30.084 68.29 30.084 67.8583 30.5157C67.4266 30.9474 67.4266 31.6489 67.8583 32.0806Z" fill="#194C88"/>
<path id="path1023" d="M77.0051 10.442C78.4891 11.3054 80.4048 10.7928 81.2682 9.3088C82.1316 7.82482 81.6189 5.90914 80.135 5.04574C78.651 4.18233 76.7353 4.69498 75.8719 6.17896C74.9815 7.66294 75.4942 9.57862 77.0051 10.442Z" fill="#3468A3"/>
<path id="path1025" d="M71.4197 15.7031C70.7992 16.7553 71.1769 18.1044 72.2292 18.725C73.2815 19.3455 74.6305 18.9678 75.2511 17.9155C75.8717 16.8633 75.4939 15.5142 74.4417 14.8936C73.3624 14.273 72.0133 14.6508 71.4197 15.7031Z" fill="#3468A3"/>
<path id="path1027" d="M69.9629 22.6105C69.2614 22.2057 68.371 22.4486 67.9663 23.1501C67.5616 23.8516 67.8044 24.742 68.5059 25.1467C69.2074 25.5514 70.0978 25.3086 70.5026 24.6071C70.9073 23.9056 70.6644 23.0152 69.9629 22.6105Z" fill="#3468A3"/>
<path id="path1029" d="M66.563 28.4923C66.0774 28.2225 65.4568 28.3844 65.187 28.87C64.9172 29.3557 65.0791 29.9763 65.5647 30.2461C66.0504 30.5159 66.671 30.354 66.9408 29.8683C67.2106 29.3827 67.0487 28.7621 66.563 28.4923Z" fill="#3468A3"/>
<path id="path1031" d="M68.8026 6.85339C70.3676 7.2851 71.9864 6.34075 72.3912 4.77582C72.8229 3.2109 71.8785 1.59201 70.3136 1.18729C68.7487 0.782569 67.1298 1.69994 66.7251 3.26486C66.2934 4.82978 67.2377 6.44867 68.8026 6.85339Z" fill="#4C8DCB"/>
<path id="path1033" d="M66.3203 16.0806C67.3996 16.3774 68.5058 15.7298 68.8026 14.6506C69.0994 13.5713 68.4519 12.4651 67.3726 12.1683C66.2933 11.8715 65.1871 12.519 64.8903 13.5983C64.6205 14.6776 65.2411 15.7838 66.3203 16.0806Z" fill="#4C8DCB"/>
<path id="path1035" d="M64.3778 23.3658C65.1063 23.5546 65.8618 23.1229 66.0507 22.3944C66.2396 21.6659 65.8079 20.9104 65.0794 20.7216C64.3509 20.5327 63.5954 20.9644 63.4065 21.6929C63.2176 22.3944 63.6493 23.1499 64.3778 23.3658Z" fill="#4C8DCB"/>
<path id="path1037" d="M62.2191 27.8989C62.0842 28.3846 62.381 28.8972 62.8667 29.0321C63.3524 29.167 63.865 28.8702 63.9999 28.3846C64.1348 27.8989 63.838 27.3863 63.3524 27.2514C62.8397 27.1165 62.3271 27.4133 62.2191 27.8989Z" fill="#4C8DCB"/>
<path id="path1039" d="M59.8987 5.50421C61.4097 5.50421 62.6508 4.26307 62.6508 2.75211C62.6508 1.24115 61.4097 0 59.8987 0C58.3878 0 57.1466 1.24115 57.1466 2.75211C57.1466 4.29005 58.3878 5.50421 59.8987 5.50421Z" fill="#3498B3"/>
<path id="path1041" d="M59.8989 11.3862C58.8737 11.3862 58.0642 12.1957 58.0642 13.221C58.0642 14.2463 58.8737 15.0557 59.8989 15.0557C60.9242 15.0557 61.7337 14.2463 61.7337 13.221C61.7337 12.2227 60.9242 11.3862 59.8989 11.3862Z" fill="#3498B3"/>
<path id="path1043" d="M61.1939 21.3962C61.1939 20.6947 60.6272 20.1011 59.8987 20.1011C59.1702 20.1011 58.6036 20.6677 58.6036 21.3962C58.6036 22.1247 59.1702 22.6913 59.8987 22.6913C60.6272 22.6913 61.1939 22.0977 61.1939 21.3962Z" fill="#3498B3"/>
<path id="path1045" d="M59.8988 26.9004C59.4401 26.9004 59.0624 27.2781 59.0624 27.7368C59.0624 28.1955 59.4401 28.5732 59.8988 28.5732C60.3575 28.5732 60.7352 28.1955 60.7352 27.7368C60.7352 27.2781 60.3575 26.9004 59.8988 26.9004Z" fill="#3498B3"/>
<path id="path1047" d="M50.9139 6.52956C52.29 6.15182 53.0994 4.74879 52.7217 3.37274C52.344 1.99668 50.9409 1.18724 49.5649 1.56498C48.1888 1.94272 47.3794 3.34575 47.7571 4.72181C48.1349 6.07088 49.5649 6.88032 50.9139 6.52956Z" fill="#0AA496"/>
<path id="path1049" d="M51.3726 14.5701C51.6154 15.4605 52.5058 15.9732 53.3962 15.7303C54.2866 15.4875 54.7992 14.5971 54.5564 13.7067C54.3136 12.8164 53.4232 12.3037 52.5328 12.5465C51.6694 12.7894 51.1297 13.7067 51.3726 14.5701Z" fill="#0AA496"/>
<path id="path1051" d="M53.936 22.3675C54.0979 23.0151 54.7724 23.3928 55.393 23.2039C56.0405 23.042 56.4183 22.3675 56.2294 21.7469C56.0675 21.0994 55.393 20.7216 54.7724 20.9105C54.1248 21.0724 53.7741 21.72 53.936 22.3675Z" fill="#0AA496"/>
<path id="path1053" d="M56.0133 28.3575C56.1212 28.7622 56.5259 28.9781 56.9037 28.8701C57.3084 28.7622 57.5243 28.3575 57.4163 27.9797C57.3084 27.575 56.9037 27.3592 56.5259 27.4671C56.1482 27.575 55.9054 27.9528 56.0133 28.3575Z" fill="#0AA496"/>
<path id="path1055" d="M42.4688 9.84846C43.602 9.20091 44.0068 7.71693 43.3592 6.58371C42.7116 5.45049 41.2277 5.04577 40.0945 5.69332C38.9612 6.34088 38.5565 7.82486 39.2041 8.95808C39.8786 10.1183 41.3356 10.496 42.4688 9.84846Z" fill="#00AA75"/>
<path id="path1057" d="M47.2444 18.1047C47.9459 17.7 48.1888 16.8096 47.784 16.1081C47.3793 15.4066 46.4889 15.1637 45.7874 15.5685C45.0859 15.9732 44.8431 16.8636 45.2478 17.5651C45.6255 18.2666 46.5429 18.5094 47.2444 18.1047Z" fill="#00AA75"/>
<path id="path1059" d="M51.1299 24.877C51.6695 24.5802 51.8314 23.9057 51.5346 23.3661C51.2378 22.8264 50.5633 22.6646 50.0237 22.9614C49.484 23.2581 49.3221 23.9327 49.6189 24.4723C49.9427 24.985 50.6173 25.1738 51.1299 24.877Z" fill="#00AA75"/>
<path id="path1061" d="M54.3138 29.0856C54.1249 28.7888 53.7472 28.6809 53.4234 28.8428C53.1266 29.0316 53.0187 29.4094 53.1805 29.7332C53.3694 30.03 53.7472 30.1379 54.044 29.976C54.3947 29.7871 54.5026 29.3824 54.3138 29.0856Z" fill="#00AA75"/>
<path id="path1063" d="M35.103 15.2715C35.9664 14.4081 35.9664 13.0051 35.103 12.1417C34.2396 11.2783 32.8365 11.2783 31.9731 12.1417C31.1097 13.0051 31.1097 14.4081 31.9731 15.2715C32.8635 16.1349 34.2665 16.1349 35.103 15.2715Z" fill="#4FBA6A"/>
<path id="path1065" d="M41.8753 20.2092C41.3627 19.6965 40.5533 19.6965 40.0676 20.2092C39.5549 20.7218 39.5549 21.5313 40.0676 22.0169C40.5802 22.5296 41.3897 22.5296 41.8753 22.0169C42.361 21.5043 42.361 20.6949 41.8753 20.2092Z" fill="#4FBA6A"/>
<path id="path1067" d="M47.4605 26.1717C47.0558 25.767 46.4352 25.767 46.0305 26.1717C45.6257 26.5764 45.6257 27.197 46.0305 27.6017C46.4352 28.0064 47.0558 28.0064 47.4605 27.6017C47.8382 27.197 47.8382 26.5764 47.4605 26.1717Z" fill="#4FBA6A"/>
<path id="path1069" d="M51.6156 30.9747C51.3997 30.7589 51.049 30.7858 50.8601 31.0017C50.6442 31.2175 50.6712 31.5683 50.8871 31.7572C51.1029 31.946 51.4267 31.946 51.6425 31.7572C51.8314 31.5413 51.8314 31.1906 51.6156 30.9747Z" fill="#4FBA6A"/>
<path id="path1071" d="M26.5766 23.1231C27.548 23.6897 28.7891 23.339 29.3287 22.3946C29.8954 21.4233 29.5446 20.1821 28.6003 19.6425C27.6289 19.0759 26.3878 19.4267 25.8481 20.371C25.2815 21.3154 25.6053 22.5565 26.5766 23.1231Z" fill="#7EC45F"/>
<path id="path1073" d="M37.2611 25.7133C36.7215 25.4165 36.074 25.6054 35.7502 26.118C35.4534 26.6577 35.6422 27.3052 36.1549 27.629C36.6945 27.9258 37.3421 27.7639 37.6659 27.2243C37.9627 26.6846 37.7738 26.0101 37.2611 25.7133Z" fill="#7EC45F"/>
<path id="path1075" d="M44.2496 29.9495C43.8179 29.7067 43.2513 29.8416 43.0085 30.3003C42.7656 30.732 42.9005 31.2986 43.3592 31.5414C43.7909 31.7842 44.3575 31.6493 44.6004 31.2176C44.8432 30.7859 44.6813 30.2193 44.2496 29.9495Z" fill="#7EC45F"/>
<path id="path1077" d="M97.2411 35.5884C94.8128 35.5884 92.8162 37.558 92.8162 40.0133C92.8162 42.4417 94.7858 44.4383 97.2411 44.4383C99.6694 44.4383 101.639 42.4686 101.666 40.0403C101.639 37.585 99.6694 35.5884 97.2411 35.5884Z" fill="#4C609B"/>
<path id="path1079" d="M89.9293 40.0138C89.9293 38.26 88.5262 36.8569 86.7724 36.8569C85.0186 36.8569 83.6156 38.26 83.6156 40.0138C83.6156 41.7676 85.0186 43.1706 86.7724 43.1706C88.4992 43.1706 89.9293 41.7676 89.9293 40.0138Z" fill="#4C609B"/>
<path id="path1081" d="M78.5967 37.855C77.4096 37.855 76.4382 38.8263 76.4382 40.0135C76.4382 41.2007 77.4096 42.172 78.5967 42.172C79.7839 42.172 80.7553 41.2007 80.7553 40.0135C80.7553 38.8263 79.7839 37.855 78.5967 37.855Z" fill="#4C609B"/>
<path id="path1083" d="M73.6592 40.0134C73.6592 39.2309 73.0386 38.6104 72.2562 38.6104C71.4737 38.6104 70.8531 39.2309 70.8531 40.0134C70.8531 40.7958 71.4737 41.4164 72.2562 41.4164C73.0386 41.4164 73.6592 40.7958 73.6592 40.0134Z" fill="#54669F"/>
<path id="path1085" d="M96.9983 45.7335C94.8398 45.1399 92.6273 46.435 92.0337 48.5936C91.4401 50.7521 92.7352 52.9646 94.8937 53.5581C97.0523 54.1517 99.2647 52.8566 99.8583 50.6981V50.6711C100.425 48.5396 99.1298 46.3271 96.9983 45.7335Z" fill="#746FA7"/>
<path id="path1087" d="M85.1263 49.5919C86.5833 49.9966 88.0943 49.1062 88.499 47.6492C88.9037 46.1922 88.0133 44.6813 86.5563 44.2765C85.0993 43.8718 83.5884 44.7622 83.1837 46.2192C82.7789 47.6762 83.6424 49.1872 85.1263 49.5919Z" fill="#746FA7"/>
<path id="path1089" d="M77.4099 46.7857C78.4892 47.0825 79.5954 46.4349 79.8922 45.3557C80.189 44.2764 79.5415 43.1702 78.4622 42.8734C77.3829 42.5766 76.2767 43.2241 75.9799 44.3034C75.7101 45.3826 76.3307 46.4889 77.4099 46.7857Z" fill="#746FA7"/>
<path id="path1091" d="M71.5008 44.4388C72.1754 44.6277 72.8769 44.2229 73.0657 43.5214C73.2546 42.8469 72.8499 42.1454 72.1484 41.9565C71.4738 41.7676 70.7723 42.1724 70.5835 42.8739C70.3946 43.5214 70.7993 44.2499 71.5008 44.4388Z" fill="#746FA7"/>
<path id="path1093" d="M94.0572 55.4469C92.3034 54.4217 90.0639 55.0422 89.0386 56.796C88.0133 58.5498 88.6339 60.7893 90.3877 61.8146C92.1415 62.8399 94.3809 62.2193 95.4062 60.4655C96.4046 58.7117 95.811 56.4722 94.0572 55.4469Z" fill="#99558E"/>
<path id="path1095" d="M85.3962 54.6912C86.0977 53.4501 85.693 51.8851 84.4518 51.1836C83.2107 50.4821 81.6457 50.8868 80.9442 52.128C80.2427 53.3691 80.6474 54.934 81.8886 55.6355C83.1027 56.3371 84.6677 55.9054 85.3962 54.6912Z" fill="#99558E"/>
<path id="path1097" d="M77.6527 50.2396C78.1653 49.3492 77.8685 48.243 76.9781 47.7303C76.0877 47.2177 74.9815 47.5145 74.4689 48.4049C73.9562 49.2953 74.253 50.4015 75.1434 50.9141C76.0338 51.3998 77.14 51.103 77.6527 50.2396Z" fill="#99558E"/>
<path id="path1099" d="M71.6358 46.732C71.9596 46.1654 71.7707 45.4369 71.2041 45.0861C70.6375 44.7624 69.909 44.9512 69.5582 45.5178C69.2074 46.0844 69.4233 46.8129 69.9899 47.1637H70.0169C70.5835 47.4875 71.312 47.2986 71.6358 46.732Z" fill="#99558E"/>
<path id="path1101" d="M83.9395 63.9999C82.6444 65.295 82.6444 67.3726 83.9395 68.6677C85.2346 69.9628 87.3121 69.9628 88.6073 68.6677C89.9024 67.3726 89.9024 65.295 88.6073 63.9999C87.3391 62.7318 85.2346 62.7318 83.9395 63.9999Z" fill="#AF3379"/>
<path id="path1103" d="M80.5667 60.6273C81.511 59.683 81.511 58.172 80.5667 57.2546C79.6223 56.3103 78.1113 56.3103 77.194 57.2546C76.2496 58.199 76.2496 59.71 77.194 60.6273C78.1113 61.5717 79.6223 61.5717 80.5667 60.6273Z" fill="#AF3379"/>
<path id="path1105" d="M74.2798 54.3409C74.9274 53.6933 74.9274 52.641 74.2798 51.9935C73.6323 51.3459 72.58 51.3459 71.9324 51.9935C71.2849 52.641 71.2849 53.6933 71.9324 54.3139C72.58 54.9884 73.6323 54.9884 74.2798 54.3409Z" fill="#AF3379"/>
<path id="path1107" d="M67.8583 49.4571C68.29 49.8888 68.9915 49.8888 69.4232 49.4571C69.8549 49.0254 69.8549 48.3238 69.4232 47.8921C68.9915 47.4604 68.29 47.4604 67.8583 47.8921C67.4266 48.3238 67.4266 49.0254 67.8583 49.4571Z" fill="#AF3379"/>
<path id="path1109" d="M77.005 69.5579C75.521 70.4213 75.0084 72.337 75.8718 73.821C76.7352 75.305 78.6509 75.8176 80.1349 74.9542C81.6188 74.0908 82.1315 72.1751 81.2681 70.6912C80.4047 69.2072 78.489 68.6945 77.005 69.5579Z" fill="#BE266A"/>
<path id="path1111" d="M75.2242 62.1113C74.6037 61.059 73.2816 60.6812 72.2023 61.3018C71.15 61.9224 70.7723 63.2445 71.3929 64.3237C72.0135 65.376 73.3355 65.7538 74.4148 65.1332C75.4671 64.5126 75.8448 63.1635 75.2242 62.1113Z" fill="#BE266A"/>
<path id="path1113" d="M69.9629 57.3899C70.6644 56.9852 70.9073 56.0948 70.5026 55.3933C70.0978 54.6917 69.2074 54.4489 68.5059 54.8536C67.8044 55.2583 67.5616 56.1487 67.9663 56.8503C68.371 57.5518 69.2614 57.7946 69.9629 57.3899Z" fill="#BE266A"/>
<path id="path1115" d="M65.5647 49.754C65.0791 50.0238 64.9172 50.6444 65.187 51.1301C65.4568 51.6157 66.0774 51.7776 66.563 51.5078C67.0487 51.238 67.2106 50.6174 66.9408 50.1317C66.671 49.6461 66.0504 49.4842 65.5647 49.754Z" fill="#BE266A"/>
<path id="path1117" d="M68.8026 73.1467C67.2377 73.5784 66.2934 75.1703 66.7251 76.7352C67.1568 78.3001 68.7487 79.2445 70.3136 78.8128C71.8785 78.3811 72.8229 76.7892 72.3912 75.2243C71.9864 73.6593 70.3676 72.715 68.8026 73.1467Z" fill="#D4525C"/>
<path id="path1119" d="M67.3726 67.8047C68.4519 67.5079 69.0994 66.4017 68.8026 65.3224C68.5058 64.2432 67.3996 63.5956 66.3203 63.8924C65.2411 64.1892 64.6205 65.2954 64.8903 66.3747C65.1871 67.4809 66.2933 68.1015 67.3726 67.8047Z" fill="#D4525C"/>
<path id="path1121" d="M66.0507 57.6055C65.8618 56.877 65.1063 56.4453 64.3778 56.6342C63.6493 56.823 63.2176 57.5785 63.4065 58.307C63.5954 59.0355 64.3509 59.4672 65.0794 59.2784C65.8348 59.1165 66.2665 58.361 66.0507 57.6055Z" fill="#D4525C"/>
<path id="path1123" d="M63.9731 51.6152C63.8382 51.1296 63.3255 50.8328 62.8398 50.9677C62.3542 51.1026 62.0574 51.6152 62.1923 52.1009C62.3272 52.5866 62.8129 52.8834 63.3255 52.7484C63.8112 52.6135 64.108 52.1009 63.9731 51.6152Z" fill="#D4525C"/>
<path id="path1125" d="M59.8987 74.4961C58.3878 74.4961 57.1466 75.7372 57.1466 77.2482C57.1466 78.7592 58.3878 80.0003 59.8987 80.0003C61.4097 80.0003 62.6508 78.7861 62.6508 77.2482C62.6508 75.7372 61.4367 74.4961 59.8987 74.4961Z" fill="#E0654F"/>
<path id="path1127" d="M58.0642 66.7791C58.0642 67.8044 58.8737 68.6138 59.8989 68.6138C60.9242 68.6138 61.7337 67.8044 61.7337 66.7791C61.7337 65.7538 60.9242 64.9443 59.8989 64.9443C58.9006 64.9443 58.0642 65.7538 58.0642 66.7791Z" fill="#E0654F"/>
<path id="path1129" d="M59.8987 59.8715C60.6003 59.8715 61.1939 59.3049 61.1939 58.5764C61.1939 57.8479 60.6272 57.2812 59.8987 57.2812C59.1972 57.2812 58.6036 57.8479 58.6036 58.5764C58.6306 59.3049 59.1972 59.8715 59.8987 59.8715Z" fill="#E0654F"/>
<path id="path1131" d="M59.8988 51.4268C59.4401 51.4268 59.0624 51.8045 59.0624 52.2632C59.0624 52.7219 59.4401 53.0996 59.8988 53.0996C60.3575 53.0996 60.7352 52.7219 60.7352 52.2632C60.7352 51.8045 60.3575 51.4268 59.8988 51.4268Z" fill="#E0654F"/>
<path id="path1133" d="M50.9141 73.4704C49.538 73.0926 48.135 73.9291 47.7572 75.2781C47.3795 76.6542 48.2159 78.0572 49.565 78.435C50.941 78.8127 52.3441 77.9763 52.7218 76.6272C53.0996 75.2511 52.2901 73.8481 50.9141 73.4704Z" fill="#F57F2A"/>
<path id="path1135" d="M53.3962 64.2429C52.5058 64.0001 51.6154 64.5397 51.3726 65.4031C51.1297 66.2935 51.6694 67.1839 52.5328 67.4267C53.4232 67.6696 54.3136 67.1299 54.5564 66.2665C54.7992 65.4031 54.2866 64.4858 53.3962 64.2429Z" fill="#F57F2A"/>
<path id="path1137" d="M55.3929 56.7963C54.7454 56.6344 54.0978 57.0121 53.9359 57.6327C53.774 58.2803 54.1518 58.9278 54.7724 59.0897C55.4199 59.2516 56.0675 58.8739 56.2294 58.2533C56.4182 57.6327 56.0405 56.9852 55.3929 56.7963Z" fill="#F57F2A"/>
<path id="path1139" d="M57.4434 52.0206C57.5513 51.6159 57.3085 51.2111 56.9307 51.1302C56.553 51.0493 56.1213 51.2651 56.0404 51.6428C55.9594 52.0206 56.1753 52.4523 56.553 52.5332C56.9307 52.6412 57.3355 52.4253 57.4434 52.0206Z" fill="#F57F2A"/>
<path id="path1141" d="M42.4686 70.1517C41.3354 69.5042 39.8784 69.8819 39.2039 71.0152C38.5563 72.1484 38.9341 73.6054 40.0673 74.2799C41.2005 74.9275 42.6575 74.5497 43.332 73.4165C44.0066 72.2833 43.6018 70.8263 42.4686 70.1517Z" fill="#F89828"/>
<path id="path1143" d="M47.2444 61.8956C46.5429 61.4909 45.6525 61.7337 45.2478 62.4352C44.8431 63.1368 45.0859 64.0272 45.7874 64.4319C46.4889 64.8366 47.3793 64.5938 47.784 63.8922C48.1888 63.1907 47.9459 62.3003 47.2444 61.8956Z" fill="#F89828"/>
<path id="path1145" d="M50.0505 57.0387C50.5902 57.3354 51.2647 57.1736 51.5615 56.6339C51.8583 56.0943 51.6964 55.4198 51.1568 55.123C50.6171 54.8262 49.9426 54.9881 49.6458 55.5277C49.349 56.0673 49.5109 56.7419 50.0505 57.0387Z" fill="#F89828"/>
<path id="path1147" d="M54.0977 50.0236C53.8009 49.8347 53.3962 49.9427 53.2343 50.2664C53.0454 50.5632 53.1533 50.968 53.4771 51.1298C53.7739 51.3187 54.1786 51.2108 54.3405 50.887C54.5024 50.6172 54.3945 50.2125 54.0977 50.0236Z" fill="#F89828"/>
<path id="path1149" d="M32 64.7281C31.1366 65.5915 31.1366 66.9946 32 67.858C32.8634 68.7214 34.2664 68.7214 35.1298 67.858C35.9932 66.9946 35.9932 65.5915 35.1298 64.7281C34.2664 63.8647 32.8634 63.8647 32 64.7281Z" fill="#FEC127"/>
<path id="path1151" d="M40.0676 57.9831C39.5549 58.4958 39.5549 59.3052 40.0676 59.7909C40.5802 60.3035 41.3897 60.3035 41.8753 59.7909C42.361 59.2782 42.388 58.4688 41.8753 57.9831C41.3897 57.4705 40.5533 57.4705 40.0676 57.9831Z" fill="#FEC127"/>
<path id="path1153" d="M46.0305 52.3978C45.6257 52.8025 45.6257 53.4231 46.0305 53.8278C46.4352 54.2325 47.0558 54.2325 47.4605 53.8278C47.8652 53.4231 47.8652 52.8025 47.4605 52.3978C47.0558 51.9931 46.4082 51.9931 46.0305 52.3978Z" fill="#FEC127"/>
<path id="path1155" d="M51.6156 48.2428C51.3997 48.0269 51.049 48.0539 50.8601 48.2698C50.6442 48.4856 50.6712 48.8364 50.8871 49.0252C51.1029 49.2141 51.4267 49.2141 51.6425 49.0252C51.8314 48.8094 51.8314 48.4586 51.6156 48.2428Z" fill="#FEC127"/>
<path id="path1157" d="M26.6307 56.8232C25.6594 57.3899 25.3356 58.604 25.9022 59.5753C26.4688 60.5467 27.683 60.8705 28.6543 60.3038C29.6257 59.7372 29.9494 58.5231 29.3828 57.5517C28.8432 56.5804 27.6021 56.2566 26.6307 56.8232Z" fill="#FED627"/>
<path id="path1159" d="M36.1549 52.371C35.6422 52.6678 35.4534 53.3424 35.7502 53.882C36.047 54.3946 36.7215 54.5835 37.2611 54.2867C37.7738 53.9899 37.9627 53.3154 37.6659 52.7757C37.3691 52.2631 36.6945 52.0742 36.1549 52.371Z" fill="#FED627"/>
<path id="path1161" d="M43.332 48.4591C42.9003 48.7019 42.7384 49.2685 43.0083 49.7002C43.2511 50.1319 43.8177 50.2938 44.2494 50.024C44.6811 49.7811 44.843 49.2145 44.5732 48.7828C44.3303 48.3511 43.7637 48.1892 43.332 48.4591Z" fill="#FED627"/>
<path id="path1163" d="M22.5295 33.592H25.7673V46.0575H22.5295V33.592ZM24.4992 28.0339C23.5008 27.764 22.4755 28.3576 22.2057 29.3559C21.9359 30.3543 22.5295 31.3796 23.5278 31.6494C24.5261 31.9192 25.5514 31.3256 25.8212 30.3273C26.0911 29.329 25.4975 28.2767 24.4992 28.0339ZM35.7774 46.3273C34.9949 46.3273 34.2125 46.1924 33.484 45.8686C32.8364 45.5718 32.2698 45.1131 31.8381 44.5465V52.2902H28.6813V33.592H31.8111V35.3188C32.2158 34.6983 32.7825 34.2126 33.457 33.8618C34.1585 33.5111 34.941 33.3222 35.7504 33.3222C36.5329 33.3222 37.2884 33.4841 38.0169 33.7809C38.7453 34.0777 39.3929 34.5364 39.9325 35.076C40.4991 35.6696 40.9578 36.3711 41.2546 37.1266C41.6054 37.99 41.7673 38.8804 41.7403 39.7978C41.7673 40.7151 41.5784 41.6325 41.2276 42.4959C40.9039 43.2514 40.4452 43.9529 39.8786 44.5465C38.8263 45.6797 37.3153 46.3273 35.7774 46.3273ZM35.1298 43.3054C35.5885 43.3054 36.0472 43.2244 36.4789 43.0355C36.8836 42.8467 37.2614 42.6038 37.5852 42.2801C37.9089 41.9563 38.1518 41.5785 38.3136 41.1738C38.6644 40.2834 38.6644 39.3121 38.3136 38.4217C38.1518 38.017 37.8819 37.6393 37.5852 37.3155C37.2614 36.9917 36.8836 36.7489 36.4789 36.56C36.0472 36.3711 35.5885 36.2902 35.1298 36.2902C34.2125 36.2902 33.3221 36.6679 32.6475 37.3155C32.3238 37.6393 32.0809 38.017 31.919 38.4217C31.5683 39.3121 31.5683 40.2834 31.919 41.1468C32.0809 41.5516 32.3238 41.9293 32.6475 42.2531C33.3221 42.9546 34.2125 43.3323 35.1298 43.3054ZM44.0607 33.592H47.1905V35.5077C47.4604 34.8332 47.919 34.2666 48.5396 33.8888C49.1872 33.5381 49.8887 33.3492 50.6442 33.3762C51.0489 33.3762 51.4266 33.4301 51.8044 33.5111C52.1281 33.592 52.4519 33.7 52.7487 33.8618L51.5885 36.9917C51.3727 36.8568 51.1298 36.7489 50.887 36.6679C50.5632 36.587 50.2394 36.533 49.9157 36.533C49.1872 36.506 48.4857 36.7489 47.946 37.2075C47.4604 37.6662 47.2175 38.4217 47.2175 39.447V46.0305H44.0607V33.592ZM59.7909 46.3273C58.9005 46.3273 58.0101 46.1654 57.1737 45.8146C56.3912 45.4909 55.6897 45.0052 55.0691 44.4116C53.855 43.1974 53.1804 41.5516 53.1804 39.8247C53.1804 38.9613 53.3423 38.0979 53.6661 37.2885C53.9899 36.506 54.4486 35.8045 55.0421 35.2109C57.6593 32.6747 61.8145 32.6747 64.4317 35.2109C65.6459 36.4251 66.3474 38.071 66.3474 39.7978C66.3474 40.6612 66.1855 41.5246 65.8347 42.307C65.5109 43.0895 65.0253 43.791 64.4587 44.3846C63.8651 44.9782 63.1636 45.4639 62.3541 45.7876C61.5717 46.1384 60.6813 46.3273 59.7909 46.3273ZM59.8179 43.3054C60.2765 43.3054 60.7352 43.2244 61.1669 43.0355C61.5717 42.8467 61.9224 42.6038 62.2462 42.307C62.57 41.9833 62.8128 41.6055 62.9747 41.2008C63.3254 40.3104 63.3254 39.3391 62.9747 38.4757C62.8128 38.071 62.57 37.6932 62.2462 37.3694C61.9224 37.0457 61.5717 36.8028 61.1669 36.6409C60.3035 36.2632 59.3322 36.2632 58.4958 36.6409C58.091 36.8298 57.7403 37.0726 57.4165 37.3694C57.0927 37.6932 56.8499 38.071 56.688 38.4757C56.3373 39.3661 56.3373 40.3374 56.688 41.2008C56.8499 41.6055 57.0927 41.9833 57.4165 42.307C57.7403 42.6308 58.091 42.8737 58.4958 43.0355C58.9005 43.1974 59.3592 43.3054 59.8179 43.3054ZM0 33.592H3.23777L5.74705 41.5516L8.71501 33.592H11.5211L14.4351 41.5516L17.0523 33.592H20.29L16.054 46.0575H13.059L10.0911 37.936L7.09612 46.0575H4.04722L0 33.592Z" fill="#351A55"/>
</g>
</svg>
