<svg width="36" height="36" viewBox="0 0 36 36" fill="none" xmlns="http://www.w3.org/2000/svg">
<path d="M18 36C27.9411 36 36 27.9411 36 18C36 8.05888 27.9411 0 18 0C8.05888 0 0 8.05888 0 18C0 27.9411 8.05888 36 18 36Z" fill="url(#paint0_linear_91_2357)"/>
<path d="M21.6379 9H14.3621C12.9406 9.00188 11.5778 9.56742 10.5726 10.5726C9.56742 11.5778 9.00188 12.9406 9 14.3621V21.6379C9.00188 23.0594 9.56742 24.4222 10.5726 25.4274C11.5778 26.4326 12.9406 26.9981 14.3621 27H21.6379C23.0596 26.9987 24.4228 26.4334 25.4281 25.4281C26.4334 24.4228 26.9987 23.0596 27 21.6379V14.3621C26.9981 12.9406 26.4326 11.5778 25.4274 10.5726C24.4222 9.56742 23.0594 9.00188 21.6379 9ZM25.1905 21.6379C25.1905 22.5801 24.8162 23.4837 24.15 24.15C23.4837 24.8162 22.5801 25.1905 21.6379 25.1905H14.3621C13.4199 25.1905 12.5163 24.8162 11.85 24.15C11.1838 23.4837 10.8095 22.5801 10.8095 21.6379V14.3621C10.8095 13.4199 11.1838 12.5163 11.85 11.85C12.5163 11.1838 13.4199 10.8095 14.3621 10.8095H21.6379C22.5801 10.8095 23.4837 11.1838 24.15 11.85C24.8162 12.5163 25.1905 13.4199 25.1905 14.3621V21.6379Z" fill="white"/>
<path d="M18 13.3462C17.0789 13.3457 16.1783 13.6185 15.4122 14.1299C14.6461 14.6414 14.0489 15.3686 13.6962 16.2195C13.3435 17.0704 13.2511 18.0069 13.4307 18.9103C13.6103 19.8138 14.0538 20.6437 14.7051 21.295C15.3565 21.9464 16.1863 22.3899 17.0898 22.5695C17.9933 22.7491 18.9297 22.6566 19.7806 22.3039C20.6315 21.9512 21.3587 21.354 21.8702 20.5879C22.3817 19.8218 22.6544 18.9213 22.6539 18.0001C22.6527 16.7662 22.162 15.5832 21.2894 14.7107C20.4169 13.8382 19.2339 13.3474 18 13.3462ZM18 20.8422C17.4379 20.8422 16.8884 20.6756 16.421 20.3633C15.9536 20.051 15.5893 19.6071 15.3742 19.0878C15.1591 18.5684 15.1028 17.997 15.2125 17.4457C15.3222 16.8944 15.5928 16.3879 15.9903 15.9905C16.3878 15.593 16.8942 15.3223 17.4455 15.2126C17.9968 15.103 18.5683 15.1593 19.0876 15.3744C19.6069 15.5895 20.0508 15.9538 20.3631 16.4212C20.6754 16.8885 20.8421 17.438 20.8421 18.0001C20.8421 18.7539 20.5427 19.4768 20.0097 20.0098C19.4767 20.5428 18.7538 20.8422 18 20.8422Z" fill="white"/>
<path d="M22.6824 14.4969C23.3181 14.4969 23.8335 13.9816 23.8335 13.3459C23.8335 12.7102 23.3181 12.1948 22.6824 12.1948C22.0467 12.1948 21.5314 12.7102 21.5314 13.3459C21.5314 13.9816 22.0467 14.4969 22.6824 14.4969Z" fill="white"/>
<defs>
<linearGradient id="paint0_linear_91_2357" x1="18" y1="35.8342" x2="18" y2="2.43947" gradientUnits="userSpaceOnUse">
<stop stop-color="#E09B3D"/>
<stop offset="0.24" stop-color="#C74C4D"/>
<stop offset="0.65" stop-color="#C21975"/>
<stop offset="1" stop-color="#7024C4"/>
</linearGradient>
</defs>
</svg>
