<svg width="26" height="24" viewBox="0 0 26 24" fill="none" xmlns="http://www.w3.org/2000/svg">
<path d="M14.4196 15.9279L23.9724 23.849C23.7381 23.9463 23.4809 24 23.2118 24H1.98796C1.71879 24 1.46206 23.9464 1.22776 23.849L11.6491 15.2214C12.1235 14.8273 13.1252 14.8548 13.6334 15.2761L14.3863 15.9004L14.4196 15.9279ZM3.39483 11.1044L3.37974 11.0934L0 8.75038V22.0136C0 22.5665 0.227542 23.0674 0.594103 23.4277L9.97149 15.6634L3.39483 11.1044ZM21.8293 11.0872L21.7986 11.109L15.237 15.6582L24.6066 23.4277C24.9732 23.0669 25.2002 22.566 25.2002 22.0136V8.75038L21.8293 11.0872ZM3.95712 10.6066V4.09973C3.95712 3.5801 4.37936 3.15677 4.89851 3.15677H20.3012C20.8213 3.15677 21.2446 3.5801 21.2446 4.09973V10.6056L21.9735 10.1005L24.9247 8.05429L21.9735 6.00957V5.12234V4.09973C21.9735 3.17812 21.2233 2.42784 20.3011 2.42784H18.0424H16.8047L13.8271 0.36596C13.1627 -0.0958797 12.0807 -0.124532 11.4643 0.302441L8.3964 2.42784H7.11607H4.89851C3.97744 2.42784 3.22765 3.17812 3.22765 4.09973V5.12234V6.00957L0.275427 8.05424L3.22765 10.101L3.95712 10.6066ZM15.0751 6.73446V8.84413V8.84511V8.8462V9.96078C15.0751 10.3128 15.3887 10.5963 15.6483 10.5963C15.8025 10.5963 15.939 10.4989 16.0536 10.3068C16.1816 10.0924 16.3341 9.66478 16.3341 8.84496C16.3341 6.78594 14.659 5.11085 12.6 5.11085C10.541 5.11085 8.86588 6.78594 8.86588 8.84496C8.86588 10.904 10.541 12.579 12.6 12.579C13.3957 12.579 14.1553 12.3318 14.7969 11.8639C14.9596 11.7453 15.1876 11.781 15.3063 11.9437C15.4249 12.1063 15.3892 12.3344 15.2265 12.453C14.4593 13.0125 13.5511 13.3082 12.6001 13.3082C10.1391 13.3082 8.13685 11.306 8.13685 8.84496C8.13685 6.38393 10.1391 4.38167 12.6001 4.38167C15.0611 4.38167 17.0632 6.38388 17.0632 8.84496C17.0632 9.63658 16.9342 10.2542 16.6797 10.6805C16.4315 11.0964 16.0652 11.3254 15.6483 11.3254C15.1291 11.3254 14.6577 10.9682 14.4534 10.4838C13.9993 10.9965 13.3366 11.3204 12.5999 11.3204C11.2352 11.3204 10.1251 10.2098 10.1251 8.84506C10.1251 7.47932 11.2352 6.36819 12.5999 6.36819C13.2809 6.36819 13.8983 6.64461 14.3461 7.09126V6.73441C14.3461 6.53306 14.5093 6.36982 14.7106 6.36982C14.9119 6.36982 15.0751 6.5331 15.0751 6.73446ZM14.346 8.83811C14.3422 7.87759 13.5602 7.09772 12.5999 7.09772C11.6371 7.09772 10.854 7.88134 10.854 8.84511C10.854 9.80785 11.6371 10.5909 12.5999 10.5909C13.5602 10.5909 14.3422 9.8116 14.346 8.85212V8.83811Z" fill="#3A6AB9"/>
</svg>
