<svg width="24" height="24" viewBox="0 0 24 24" fill="none" xmlns="http://www.w3.org/2000/svg">
<path fill-rule="evenodd" clip-rule="evenodd" d="M17.712 0C21.1848 0 24 2.81528 24 6.28807C24 9.76086 21.1848 12.5761 17.712 12.5761C16.787 12.5761 15.9086 12.3763 15.1177 12.0176L11.8432 12.5127C11.7545 12.5261 11.6717 12.4936 11.6159 12.4234C11.56 12.3532 11.5469 12.2652 11.5799 12.1818L12.5124 9.82472C11.8256 8.81701 11.424 7.59949 11.424 6.28802C11.4239 2.81523 14.2392 0 17.712 0ZM14.9803 5.67826C14.6435 5.67826 14.3705 5.95124 14.3705 6.28802C14.3705 6.6248 14.6435 6.89778 14.9803 6.89778C15.317 6.89778 15.59 6.6248 15.59 6.28802C15.59 5.95129 15.317 5.67826 14.9803 5.67826ZM20.4437 5.67826C20.1069 5.67826 19.8339 5.95124 19.8339 6.28802C19.8339 6.6248 20.1069 6.89778 20.4437 6.89778C20.7805 6.89778 21.0535 6.6248 21.0535 6.28802C21.0535 5.95129 20.7804 5.67826 20.4437 5.67826ZM17.712 5.67826C17.3752 5.67826 17.1022 5.95124 17.1022 6.28802C17.1022 6.6248 17.3752 6.89778 17.712 6.89778C18.0488 6.89778 18.3217 6.6248 18.3217 6.28802C18.3217 5.95129 18.0487 5.67826 17.712 5.67826ZM21.633 21.9505L16.3637 16.6812L15.7333 17.3116C15.0718 17.9731 14.0601 18.0728 13.2822 17.5531C12.022 16.711 10.7517 15.672 9.53985 14.4602C8.32809 13.2484 7.28901 11.9781 6.44696 10.7178C5.92725 9.93994 6.02691 8.92828 6.68843 8.26671L7.31887 7.63627L2.04953 2.36698L1.90943 2.50708C-2.81302 7.22954 2.26509 14.409 5.92803 18.072C9.59097 21.7349 16.7705 26.813 21.4929 22.0906L21.633 21.9505ZM17.1351 16.0728C17.8546 15.7361 18.7407 15.864 19.3334 16.4567L21.8575 18.9808C22.4502 19.5735 22.5781 20.4596 22.2414 21.1791L17.1351 16.0728ZM2.82095 1.75859C3.54041 1.42186 4.42652 1.54976 5.0193 2.14254L7.54331 4.66655C8.13604 5.25934 8.26399 6.14544 7.92726 6.86485L2.82095 1.75859Z" fill="#3A6AB9"/>
</svg>
