<svg width="36" height="36" viewBox="0 0 36 36" fill="none" xmlns="http://www.w3.org/2000/svg">
<path d="M18 36C27.9411 36 36 27.9411 36 18C36 8.05888 27.9411 0 18 0C8.05888 0 0 8.05888 0 18C0 27.9411 8.05888 36 18 36Z" fill="#F20000"/>
<path d="M26.5784 13.6709C26.2184 12.553 25.0271 11.8922 23.921 11.7382C19.9784 11.319 16.0025 11.319 12.06 11.7382C10.9634 11.8922 9.77206 12.5625 9.41206 13.6709C8.85076 16.5307 8.85076 19.4724 9.41206 22.3322C9.78154 23.4477 10.9729 24.1109 12.0789 24.2648C16.0216 24.6817 19.9973 24.6817 23.94 24.2648C25.0365 24.1109 26.2279 23.4382 26.5879 22.3322C27.146 19.4717 27.1428 16.5301 26.5784 13.6709ZM15.8471 21.4488V14.5519L21.4626 18.0003C19.5702 19.1632 17.7323 20.2953 15.8471 21.4488Z" fill="white"/>
</svg>
