<svg width="410" height="512" viewBox="0 0 410 512" fill="none" xmlns="http://www.w3.org/2000/svg">
<path d="M405.815 195.845L213.485 3.51499C208.798 -1.17101 201.201 -1.17101 196.514 3.51499L4.18442 195.845C-0.501578 200.532 -0.501578 208.129 4.18442 212.816C8.87142 217.502 16.4684 217.502 21.1554 212.816L192.567 41.404L193.234 500.017C193.244 506.639 198.614 511.999 205.234 511.999H205.252C211.879 511.989 217.244 506.609 217.234 499.981L216.566 40.535L388.845 212.814C391.188 215.157 394.259 216.329 397.33 216.329C400.401 216.329 403.472 215.157 405.815 212.814C410.501 208.129 410.501 200.531 405.815 195.845Z" fill="url(#paint0_linear_73_3)"/>
<defs>
<linearGradient id="paint0_linear_73_3" x1="339.029" y1="126.683" x2="74.6204" y2="382.02" gradientUnits="userSpaceOnUse">
<stop stop-color="white"/>
<stop offset="0.2267" stop-color="white"/>
<stop offset="0.565" stop-color="white"/>
<stop offset="0.8347" stop-color="white"/>
<stop offset="1" stop-color="white"/>
</linearGradient>
</defs>
</svg>
