<svg width="83" height="80" viewBox="0 0 83 80" fill="none" xmlns="http://www.w3.org/2000/svg">
<g id="Countries">
<path id="Vector" d="M25.9489 67.9498C29.6992 65.5372 32.7968 62.7555 34.46 60.1108C35.2771 58.8086 35.73 57.5805 35.6977 56.4927C35.6703 55.5289 35.2271 54.628 34.273 53.8609C33.2368 53.0293 31.6461 52.3395 29.4027 51.8464C28.5211 53.0116 27.6073 54.1848 26.7032 55.342L26.6484 55.4065L26.6307 55.429L26.5984 55.4741L26.5436 55.5386L26.5114 55.5837L26.4937 55.6063L26.4437 55.6708L26.3889 55.7401L26.339 55.8045L26.289 55.8738L26.2713 55.8964L26.2342 55.9367L26.1842 56.006L26.1472 56.0479L26.1294 56.0704L26.0795 56.1349L26.0295 56.2042L25.9844 56.259L25.9618 56.2864V56.2912L25.9393 56.3186L25.9167 56.346L25.8941 56.3734L25.8764 56.4057H25.8716L25.8539 56.4331L25.8313 56.4605L25.8087 56.4879L25.7862 56.5201L25.7636 56.5475L25.741 56.5749L25.7362 56.5846L25.6943 56.6345L25.6492 56.6893V56.6941L25.6266 56.7215L25.6041 56.7489L25.5589 56.8086L25.5364 56.836L25.5138 56.8682L25.4912 56.8956L25.4687 56.9278L25.4461 56.9552L25.4236 56.9875H25.4187L25.3962 57.0149V57.0197L25.3736 57.0471L25.351 57.0793L25.3285 57.1067L25.3059 57.139H25.3011L25.2785 57.1712L25.2559 57.1986L25.2334 57.2308L25.2108 57.2631H25.206L25.1834 57.2953L25.1609 57.3227V57.3275L25.1335 57.3549V57.3598L25.1109 57.3872V57.392L25.0883 57.4194L25.0835 57.4242L25.0609 57.4516V57.4565L25.0384 57.4839L25.0335 57.4887L25.011 57.5161V57.5209L24.9836 57.5532L24.961 57.5854L24.9336 57.6176L24.9062 57.6499V57.6547L24.8837 57.6869H24.8788L24.8563 57.7192L24.8289 57.7514V57.7562L24.7741 57.8207V57.8255L24.7515 57.8578H24.7467L24.7241 57.8948H24.7193L24.6967 57.9271L24.6919 57.9319L24.6693 57.9641H24.6645L24.6371 58.0012L24.5823 58.0737L24.5549 58.1108L24.5275 58.1478L24.4953 58.1849L24.4679 58.222C24.1246 58.6603 23.7055 59.0036 23.2204 59.2405C22.7321 59.4774 22.2019 59.6015 21.6491 59.6015C21.0963 59.6015 20.5661 59.4774 20.0778 59.2405C19.5943 59.0036 19.1736 58.6603 18.8303 58.222C18.2099 57.4274 17.7393 56.8247 17.259 56.2171C14.6917 52.9503 11.9374 49.4466 10.1178 46.4087C9.24595 47.6642 8.42724 48.9631 7.65043 50.296C6.49489 52.2831 5.4441 54.3154 4.47551 56.3896C4.33368 56.6909 4.09194 56.9198 3.80829 57.0471C7.32166 64.4977 13.0639 70.688 20.1777 74.759C20.8546 73.3569 21.6024 72.045 22.5081 70.9072C23.4541 69.6904 24.5742 68.6767 25.9489 67.9498Z" fill="#00357B"/>
<path id="Vector_2" d="M5.23944 33.0659C6.43205 33.1852 7.63756 33.2029 8.86723 33.103C9.00906 32.7049 9.16861 32.3165 9.34267 31.933C9.49738 31.5945 9.66177 31.2657 9.84066 30.9418C10.3016 30.1005 10.8544 29.2963 11.5039 28.5437C11.5683 28.4663 11.636 28.389 11.7053 28.31L11.7182 28.2971L11.7311 28.2794L11.7633 28.2471L11.7762 28.2294L11.7811 28.2246L11.7907 28.2149L11.8085 28.1972L11.8214 28.1843V28.1795L11.8536 28.1472L11.881 28.115L11.8939 28.1021C12.6933 27.2479 13.5748 26.5356 14.5209 25.9554C15.4524 25.3849 16.4532 24.932 17.4943 24.6081C18.4532 23.4106 19.6233 22.1906 21.1173 21.0173C22.7386 19.7377 24.758 18.5096 27.335 17.3944C32.3375 15.2332 35.9556 12.9173 39.0757 10.1678C42.0863 7.51828 44.6488 4.44812 47.5449 0.715566C45.1033 0.241745 42.5827 0 40.0008 0C20.5951 0 4.41267 13.823 0.767151 32.1618C0.817112 32.1666 0.863849 32.1795 0.908975 32.194C2.33366 32.6131 3.77769 32.9193 5.23944 33.0659Z" fill="#00357B"/>
<path id="Vector_3" d="M62.7007 60.8425C61.9142 57.6305 61.2889 54.3557 60.878 50.997C60.4847 47.8269 60.3074 46.781 60.2285 46.789C59.9819 46.8213 59.1729 48.0187 58.3509 49.2339C57.3001 50.7923 56.2365 52.3717 54.9568 52.852C52.8456 53.6385 47.561 51.1662 43.8414 47.7995C42.6536 46.7262 41.6076 45.561 40.8405 44.3877C40.0089 43.1081 39.498 41.793 39.4706 40.5133C39.4335 38.7131 40.2974 37.1095 42.4441 35.9395C42.8373 35.7252 43.2434 35.593 43.7011 35.4415C44.934 35.0354 46.7165 34.4455 46.6891 31.8282C46.6569 28.6662 48.7037 26.6162 51.5949 25.1673C53.7465 24.094 56.3235 23.372 58.7909 22.7644C58.0012 20.5903 57.7079 18.247 57.9045 15.9536C58.1833 12.7738 59.4162 9.67144 61.6 7.23303C61.774 7.04125 61.9513 6.8543 62.1302 6.67541C58.5572 4.29986 54.5829 2.48193 50.325 1.34412C50.2798 1.52301 50.2009 1.69062 50.0832 1.84695C46.9131 5.94534 44.1572 9.29271 40.8647 12.1937C37.5528 15.1123 33.7106 17.5701 28.4019 19.8634C26.0811 20.8691 24.2584 21.9827 22.7918 23.1383C22.4356 23.4171 22.102 23.6959 21.791 23.9795C24.9659 24.0118 28.1311 25.1303 30.5808 27.3237C30.9241 27.6299 31.2529 27.9587 31.5671 28.31C33.7332 30.7275 34.979 33.8428 35.2578 37.0499C35.5414 40.2522 34.8597 43.5642 33.1659 46.3926C32.5712 47.3837 31.8782 48.4248 31.1239 49.495C33.2255 50.0655 34.8146 50.8375 35.9621 51.7561C37.5882 53.068 38.3425 54.657 38.3924 56.4202C38.4375 58.0689 37.8396 59.8046 36.7437 61.55C34.8565 64.5428 31.4302 67.6356 27.3285 70.2657C27.2963 70.2835 27.2641 70.3028 27.2318 70.3205C26.2084 70.8588 25.3494 71.6356 24.6097 72.572C23.82 73.5631 23.1576 74.7235 22.5629 75.9709L22.5452 76.0032C27.8217 78.5608 33.7428 80 40.0008 80C49.7947 80 58.7635 76.477 65.7161 70.6348C65.6065 70.5075 65.5146 70.356 65.455 70.1819C64.4236 67.1504 63.4872 64.0448 62.7007 60.8425Z" fill="#001737"/>
<path id="Vector_4" d="M8.80276 43.5818C8.08074 41.4851 7.81643 39.2369 8.00822 37.0354C8.04529 36.6341 8.09525 36.2408 8.15971 35.8428C7.08153 35.8879 6.02107 35.8524 4.97512 35.7461C3.38927 35.5914 1.84532 35.2706 0.328774 34.8323C0.114426 36.5245 0 38.2506 0 40.0008C0 44.9662 0.904128 49.7174 2.55767 54.1042C3.41667 52.3314 4.32563 50.6005 5.30389 48.9276C6.36757 47.0952 7.52473 45.3144 8.80276 43.5818Z" fill="#00357B"/>
<path id="Vector_5" d="M76.896 33.883L76.846 33.9427L76.8009 34.0071L76.7735 34.0393L76.7509 34.0716L76.701 34.1312L76.6558 34.1957H76.651L76.6059 34.2553L76.5559 34.3198L76.5334 34.352L76.5108 34.3794L76.4608 34.4439L76.4109 34.5083L76.3657 34.568L76.3158 34.6324L76.2932 34.6647L76.2658 34.6921L76.2207 34.7565L76.1707 34.8162L76.1256 34.8806L76.0757 34.9403L76.0531 34.9725L76.0305 34.9999L75.9806 35.0643L75.9306 35.124L75.908 35.1562L75.8903 35.1836L75.8677 35.211L75.8226 35.2706L75.8001 35.298L75.7775 35.3254L75.7549 35.3528L75.7324 35.3851L75.7098 35.4125L75.6872 35.4399L75.6647 35.4673L75.6421 35.4995L75.6196 35.5269L75.6018 35.5543H75.597L75.5793 35.5865H75.5744L75.5567 35.6139H75.5519L75.5341 35.6413H75.5293L75.5116 35.6735H75.5067L75.489 35.7009H75.4842L75.4471 35.7509L75.4423 35.7606H75.4245L75.402 35.788V35.7928L75.3794 35.8202L75.3569 35.8476L75.3343 35.8798L75.3117 35.9072V35.9121L75.2666 35.9669V35.9717L75.244 35.9991H75.2392L75.2166 36.0313L75.1941 36.0587V36.0636L75.1715 36.091L75.149 36.1232H75.1441L75.1216 36.1554L75.099 36.1828V36.1877L75.0764 36.2151L75.0716 36.2199L75.049 36.2473L75.0265 36.2795L74.9991 36.3118L74.9765 36.344L74.9491 36.3762L74.9266 36.4085L74.8992 36.4407L74.8766 36.4729V36.4778L74.8492 36.5052V36.51L74.8266 36.5422H74.8218L74.7992 36.5745L74.7718 36.6067V36.6115L74.7444 36.6438L74.7219 36.676H74.717L74.6945 36.7131L74.6671 36.7453L74.6397 36.7824L74.6123 36.8146V36.8194L74.5849 36.8517L74.5301 36.9242L74.5027 36.9564V36.9612L74.4753 36.9935H74.4705L74.4431 37.0305L74.4157 37.0676L74.3883 37.1047L74.356 37.145C74.0176 37.5833 73.5937 37.9218 73.1086 38.1587C72.6203 38.4004 72.0949 38.5245 71.5373 38.5245H71.5147L71.4922 38.5197H71.36L71.3503 38.5149H71.281L71.2585 38.51H71.2262C71.2037 38.5052 71.1811 38.5052 71.1537 38.5004H71.1408L71.1183 38.4955H71.0957L71.0812 38.4907H71.0715L71.0538 38.4859H71.0264L71.0038 38.481L70.9813 38.4762L70.9587 38.4713H70.9361L70.9313 38.4665H70.9136L70.9039 38.4617H70.891L70.8813 38.4568H70.8685L70.8556 38.452L70.8104 38.4423H70.8008L70.783 38.4375L70.7605 38.4327L70.7379 38.4278H70.7331L70.7153 38.423L70.7105 38.4182L70.6928 38.4133H70.6879L70.6702 38.4085H70.6606L70.6477 38.4037L70.638 38.3988H70.6251L70.6154 38.394L70.588 38.3843H70.5832L70.5655 38.3795H70.5606L70.5429 38.3698H70.5381L70.5155 38.365L70.4929 38.3553L70.4752 38.3505H70.4704L70.4527 38.3408H70.4478L70.4301 38.336L70.4204 38.3311L70.4059 38.3263H70.3962L70.3834 38.3215L70.3656 38.3118L70.3527 38.307L70.3431 38.3021L70.3302 38.2973H70.3205L70.3028 38.2876H70.2979L70.2802 38.278L70.2576 38.2683L70.2351 38.2586L70.2174 38.2538L70.2125 38.2489L70.1948 38.2441L70.19 38.2393L70.1722 38.2344L70.1674 38.2296L70.1529 38.2248L70.14 38.2199L70.1303 38.2151L70.1174 38.2103L70.1078 38.2054C70.0659 38.1877 70.0207 38.1684 69.9804 38.1506C69.497 37.9137 69.0763 37.5704 68.7282 37.1272C68.1077 36.3279 67.6371 35.73 67.1617 35.1224C64.5944 31.8556 61.8352 28.347 60.0205 25.314L59.9835 25.2592C57.4838 25.8667 54.8343 26.5662 52.8149 27.5799C50.8052 28.5856 49.3789 29.9136 49.3982 31.8105C49.4434 36.402 46.5569 37.3513 44.5601 38.0104C44.2039 38.1248 43.8881 38.2296 43.7462 38.307C42.6181 38.9242 42.1652 39.6688 42.1797 40.4633C42.1926 41.1982 42.5456 42.0395 43.1161 42.9162C43.7559 43.8945 44.6471 44.8808 45.6609 45.7995C48.7536 48.6005 52.7424 50.8068 54.0301 50.3265C54.4862 50.1525 55.3146 48.9325 56.1268 47.7221C57.292 45.9912 58.4427 44.2861 59.9142 44.104C61.6048 43.8977 62.9344 45.4836 63.5742 50.673C63.9803 53.9624 64.5831 57.1325 65.3373 60.2075C66.0448 63.0939 66.8909 65.9368 67.8321 68.7411C75.3472 61.4678 80.0161 51.2806 80.0161 40.0008C80.0161 36.958 79.6728 33.9926 79.0298 31.1432C78.3255 32.0522 77.6083 32.9692 76.896 33.883Z" fill="#001737"/>
<path id="Vector_6" d="M13.7102 30.1054C11.9374 32.0877 10.9334 34.6373 10.7045 37.2642C10.4676 39.9557 11.0429 42.7051 12.4225 45.0082C14.126 47.864 16.8448 51.3177 19.3703 54.5329C19.9682 55.2872 20.5532 56.0317 20.9513 56.5475C21.048 56.6667 21.1479 56.7538 21.2478 56.8037C21.3526 56.8537 21.4815 56.8811 21.6362 56.8811C21.7909 56.8811 21.9199 56.8537 22.0246 56.8037C22.1246 56.7538 22.2261 56.6667 22.3212 56.5475C22.7192 56.0317 23.3075 55.2872 23.9022 54.5281C26.4292 51.3161 29.1416 47.8624 30.8499 45.0082C32.2392 42.6874 32.7968 39.946 32.5631 37.2836C32.3294 34.6292 31.3157 32.0716 29.5574 30.107C29.3108 29.833 29.0546 29.5719 28.7806 29.3302C26.8064 27.5622 24.2261 26.6758 21.6395 26.671C19.0544 26.671 16.4725 27.5525 14.4902 29.3302C14.2211 29.5703 13.9616 29.8314 13.7102 30.1054ZM21.6362 30.3471C23.6105 30.3471 25.401 31.1465 26.6935 32.4438C27.9909 33.7364 28.7903 35.5269 28.7903 37.5012C28.7903 39.4786 27.9909 41.2659 26.6935 42.5633C25.401 43.8558 23.6105 44.6552 21.6362 44.6552C19.6587 44.6552 17.8714 43.8558 16.5741 42.5633C15.2815 41.2659 14.4773 39.4802 14.4773 37.5012C14.4773 35.5269 15.2815 33.7364 16.5741 32.4438C17.8714 31.1465 19.6571 30.3471 21.6362 30.3471Z" fill="#00A963"/>
<path id="Vector_7" d="M21.6362 41.9509C22.8659 41.9509 23.9747 41.4529 24.7789 40.6487C25.5879 39.8445 26.0859 38.7292 26.0859 37.5012C26.0859 36.2715 25.5879 35.1627 24.7789 34.3537C23.9747 33.5494 22.8643 33.0515 21.6362 33.0515C20.4081 33.0515 19.2929 33.5494 18.4887 34.3537C17.6845 35.1627 17.1865 36.2731 17.1865 37.5012C17.1865 38.7309 17.6845 39.8445 18.4887 40.6487C19.2929 41.4529 20.4065 41.9509 21.6362 41.9509Z" fill="#00A963"/>
<path id="Vector_8" d="M71.5325 11.9728C70.3028 11.9728 69.194 12.4708 68.385 13.275C67.5808 14.0792 67.0828 15.1945 67.0828 16.4226C67.0828 17.6522 67.5808 18.7611 68.385 19.5701C69.194 20.3743 70.3044 20.8723 71.5325 20.8723C72.7622 20.8723 73.8758 20.3743 74.68 19.5701C75.4842 18.7611 75.9822 17.6506 75.9822 16.4226C75.9822 15.1929 75.4842 14.0792 74.68 13.275C73.8758 12.4708 72.7606 11.9728 71.5325 11.9728Z" fill="#58B354"/>
<path id="Vector_9" d="M82.4642 16.1985C82.2305 13.5442 81.212 10.9897 79.4585 9.02677C79.2119 8.75279 78.9509 8.4917 78.6817 8.24996C76.7042 6.48199 74.1272 5.59076 71.5406 5.59076C68.9539 5.59076 66.3688 6.47232 64.3865 8.24996C64.1174 8.4917 63.8563 8.75279 63.6097 9.02677C61.8321 11.0091 60.8328 13.5587 60.5992 16.1857C60.3655 18.8723 60.9376 21.6265 62.3172 23.9296C64.0255 26.7806 66.7395 30.2343 69.2698 33.4495C69.8645 34.2086 70.4527 34.9564 70.8508 35.464C70.9378 35.5785 71.0377 35.6655 71.1473 35.7203H71.1425L71.1473 35.7251C71.2472 35.7751 71.381 35.7977 71.5309 35.7977C71.6856 35.7977 71.8194 35.7751 71.9193 35.7251C72.024 35.6752 72.1256 35.5881 72.2158 35.464C72.6171 34.9532 73.2022 34.207 73.7968 33.4495C76.3271 30.2327 79.0411 26.7789 80.7495 23.9296C82.1403 21.6088 82.6979 18.8626 82.4642 16.1985ZM76.5947 21.4799C75.2973 22.7772 73.5116 23.5766 71.5325 23.5766C69.5582 23.5766 67.7677 22.7772 66.4752 21.4799C65.1778 20.1873 64.3784 18.3968 64.3784 16.4226C64.3784 14.4451 65.1778 12.6578 66.4752 11.3604C67.7677 10.0679 69.5582 9.26851 71.5325 9.26851C73.51 9.26851 75.2973 10.0679 76.5947 11.3604C77.8872 12.6578 78.6866 14.4435 78.6866 16.4226C78.6866 18.3968 77.8872 20.1873 76.5947 21.4799Z" fill="#58B354"/>
</g>
</svg>
