<svg width="92" height="80" viewBox="0 0 92 80" fill="none" xmlns="http://www.w3.org/2000/svg">
<g id="Customer">
<path id="Vector" d="M77.4888 31.2107C82.9373 31.2107 87.3542 26.7938 87.3542 21.3453C87.3542 15.8967 82.9373 11.4798 77.4888 11.4798C72.0402 11.4798 67.6233 15.8967 67.6233 21.3453C67.6233 26.7938 72.0402 31.2107 77.4888 31.2107Z" fill="#00357B"/>
<path id="Vector_2" d="M77.4888 31.2107V11.4798C82.9291 11.4798 87.3542 15.9049 87.3542 21.3453C87.3542 26.7856 82.9291 31.2107 77.4888 31.2107Z" fill="#001737"/>
<path id="Vector_3" d="M91.8385 49.4152V68.8179C91.8385 71.8188 89.3883 74.2601 86.3749 74.2601H67.4547C65.9695 74.2601 64.7641 73.0547 64.7641 71.5695C64.7641 68.9537 63.3184 55.7002 63.3184 49.4152C63.3184 42.7408 68.782 37.3094 75.4977 37.3094H79.6592C86.3749 37.3094 91.8385 42.7408 91.8385 49.4152Z" fill="#00357B"/>
<path id="Vector_4" d="M91.8385 49.4152V68.8179C91.8385 71.8188 89.3883 74.2601 86.3749 74.2601H77.4888V37.3094H79.6592C86.3749 37.3094 91.8385 42.7408 91.8385 49.4152Z" fill="#001737"/>
<path id="Vector_5" d="M14.3497 31.2107C19.7983 31.2107 24.2152 26.7938 24.2152 21.3453C24.2152 15.8967 19.7983 11.4798 14.3497 11.4798C8.90117 11.4798 4.48425 15.8967 4.48425 21.3453C4.48425 26.7938 8.90117 31.2107 14.3497 31.2107Z" fill="#00357B"/>
<path id="Vector_6" d="M14.3497 31.2107V11.4798C19.7901 11.4798 24.2152 15.9049 24.2152 21.3453C24.2152 26.7856 19.7901 31.2107 14.3497 31.2107Z" fill="#001737"/>
<path id="Vector_7" d="M28.5202 49.4152C28.5202 55.9019 27.0744 68.8349 27.0744 71.5695C27.0744 73.0547 25.8691 74.2601 24.3839 74.2601H5.27534C2.36592 74.2601 0 71.9031 0 69.0045V49.4152C0 42.7408 5.46368 37.3094 12.1794 37.3094H16.3408C23.0565 37.3094 28.5202 42.7408 28.5202 49.4152Z" fill="#00357B"/>
<path id="Vector_8" d="M28.5201 49.4152C28.5201 55.9019 27.0744 68.8349 27.0744 71.5695C27.0744 73.0547 25.869 74.2601 24.3838 74.2601H14.3497V37.3094H16.3408C23.0565 37.3094 28.5201 42.7408 28.5201 49.4152Z" fill="#001737"/>
<path id="Vector_9" d="M45.9192 31.2108C54.5378 31.2108 61.5246 24.224 61.5246 15.6054C61.5246 6.98677 54.5378 0 45.9192 0C37.3006 0 30.3138 6.98677 30.3138 15.6054C30.3138 24.224 37.3006 31.2108 45.9192 31.2108Z" fill="#58B354"/>
<path id="Vector_10" d="M45.9193 31.2108V0C54.5238 0 61.5247 7.0009 61.5247 15.6054C61.5247 24.2099 54.5238 31.2108 45.9193 31.2108Z" fill="#00A963"/>
<path id="Vector_11" d="M70.1345 59.017V73.7184C70.1345 77.182 67.3165 80 63.8529 80H27.9856C24.5219 80 21.704 77.182 21.704 73.7184V59.017C21.704 47.0475 31.4421 37.3094 43.4116 37.3094H48.4269C60.3964 37.3094 70.1345 47.0475 70.1345 59.017Z" fill="#58B354"/>
<path id="Vector_12" d="M70.1346 59.017V73.7184C70.1346 77.182 67.3166 80 63.8529 80H45.9193V37.3094H48.4269C60.3964 37.3094 70.1346 47.0475 70.1346 59.017Z" fill="#00A963"/>
</g>
</svg>
