<svg width="111" height="100" viewBox="0 0 111 100" fill="none" xmlns="http://www.w3.org/2000/svg">
<path d="M69.1501 57.5V53L73.1501 51L79.1501 48L86.6501 45.5L91.1501 46L104.65 51L108.15 54L109.65 58.5L107.65 69L103.65 78L96.6501 86.5L88.6501 89V88.5L84.1501 88L79.6501 85.5L75.6501 81.5L72.6501 76L69.1501 69V58.5V57.5Z" fill="#FDFAF8"/>
<path d="M49.7648 100C49.5267 99.9996 49.2916 99.9473 49.0756 99.847L1.54352 76.9744C1.27503 76.8445 1.0487 76.6414 0.890628 76.3885C0.732552 76.1356 0.649159 75.8432 0.650062 75.5449V24.49C0.658302 24.2327 0.73024 23.9814 0.859435 23.7586C0.988629 23.5359 1.17105 23.3486 1.39036 23.2137C1.61428 23.0689 1.87186 22.9846 2.13803 22.969C2.4042 22.9533 2.66989 23.0068 2.90924 23.1243L50.4158 45.882C50.6843 46.0119 50.9106 46.215 51.0687 46.4679C51.2268 46.7209 51.3102 47.0133 51.3092 47.3116V98.4302C51.301 98.6876 51.2291 98.9389 51.0999 99.1617C50.9707 99.3844 50.7883 99.5717 50.569 99.7066C50.3339 99.8783 50.0552 99.98 49.7648 100ZM3.81546 74.5621L48.1438 95.9158V48.2944L3.81546 26.9407V74.5621Z" fill="#FDFAF8"/>
<path d="M49.7648 48.8557C49.525 48.857 49.2885 48.8001 49.0756 48.6898L1.54352 25.83C1.27503 25.7001 1.0487 25.497 0.890628 25.2441C0.732552 24.9911 0.649159 24.6987 0.650062 24.4004C0.650051 24.104 0.733955 23.8137 0.892067 23.563C1.05018 23.3122 1.27604 23.1114 1.54352 22.9837L49.0628 0.162156C49.2747 0.0555343 49.5085 0 49.7457 0C49.9829 0 50.2167 0.0555343 50.4286 0.162156L97.9223 23.022C98.1887 23.154 98.4128 23.3577 98.5696 23.6103C98.7263 23.8629 98.8093 24.1543 98.8093 24.4515C98.8093 24.7488 98.7263 25.0401 98.5696 25.2927C98.4128 25.5453 98.1887 25.749 97.9223 25.881L50.4158 48.6898C50.2144 48.7943 49.9917 48.851 49.7648 48.8557ZM5.87042 24.4004L49.7648 45.5244L93.5954 24.4515L49.7648 3.32756L5.87042 24.4004Z" fill="#FDFAF8"/>
<path d="M49.7648 99.9998C49.4665 100.002 49.1739 99.9178 48.9224 99.7573C48.7031 99.6224 48.5207 99.4351 48.3915 99.2124C48.2623 98.9896 48.1904 98.7383 48.1821 98.4809V47.3112C48.1842 47.0136 48.2688 46.7224 48.4265 46.47C48.5843 46.2176 48.809 46.0139 49.0756 45.8817L96.5438 23.0091C96.7832 22.8916 97.0489 22.8381 97.3151 22.8537C97.5812 22.8694 97.8388 22.9537 98.0627 23.0984C98.282 23.2334 98.4645 23.4206 98.5937 23.6434C98.7229 23.8661 98.7948 24.1174 98.803 24.3748V47.2219C98.8227 47.4408 98.7966 47.6614 98.7264 47.8697C98.6561 48.078 98.5433 48.2693 98.395 48.4316C98.2467 48.5939 98.0662 48.7234 97.8651 48.8121C97.6639 48.9008 97.4465 48.9465 97.2267 48.9465C97.0069 48.9465 96.7895 48.9008 96.5884 48.8121C96.3872 48.7234 96.2067 48.5939 96.0584 48.4316C95.9101 48.2693 95.7973 48.078 95.727 47.8697C95.6568 47.6614 95.6307 47.4408 95.6504 47.2219V26.9403L51.3092 48.294V95.9154L77.3217 83.3815C77.7076 83.2004 78.1496 83.18 78.5506 83.3248C78.9515 83.4696 79.2785 83.7677 79.4596 84.1537C79.6407 84.5396 79.6611 84.9816 79.5163 85.3825C79.3715 85.7835 79.0733 86.1105 78.6874 86.2916L50.4158 99.8466C50.2116 99.9417 49.99 99.9938 49.7648 99.9998Z" fill="#FDFAF8"/>
<path d="M35.1249 68.8564C34.8768 68.8584 34.6318 68.8016 34.41 68.6907C34.1881 68.5798 33.9957 68.4178 33.8485 68.2182L24.1098 55.0333L16.5792 59.2708C16.3397 59.4062 16.0693 59.4773 15.7942 59.4773C15.5191 59.4773 15.2487 59.4062 15.0092 59.2708C14.7709 59.1317 14.5734 58.9322 14.4367 58.6924C14.3 58.4527 14.2289 58.1811 14.2307 57.9051V30.9226C14.2306 30.6262 14.3145 30.3358 14.4727 30.0851C14.6308 29.8344 14.8566 29.6336 15.1241 29.5058L41.2642 16.8442C41.4769 16.7405 41.7104 16.6865 41.9471 16.6865C42.1837 16.6865 42.4172 16.7405 42.6299 16.8442L62.018 26.1617C62.2849 26.2916 62.5099 26.4939 62.6673 26.7456C62.8247 26.9972 62.9082 27.2881 62.9082 27.5849C62.9082 27.8817 62.8247 28.1726 62.6673 28.4242C62.5099 28.6759 62.2849 28.8782 62.018 29.0081L36.7076 41.2229V67.2737C36.7064 67.6065 36.6012 67.9307 36.4067 68.2007C36.2121 68.4708 35.938 68.6733 35.6226 68.7798C35.4615 68.8301 35.2937 68.8559 35.1249 68.8564ZM24.5437 51.3956C24.7914 51.3956 25.0357 51.4533 25.2572 51.564C25.4788 51.6748 25.6715 51.8356 25.8201 52.0338L33.5422 62.4873V40.2401C33.5424 39.9405 33.6277 39.6471 33.7881 39.394C33.9485 39.141 34.1775 38.9387 34.4484 38.8106L57.6911 27.5785L41.9279 20.0096L17.3705 31.9182V55.1992L23.7524 51.5998C23.9928 51.4613 24.2663 51.3908 24.5437 51.3956Z" fill="#FDFAF8"/>
<path d="M59.7333 83.9176C59.379 83.9113 59.0371 83.7862 58.7623 83.5624C58.4876 83.3386 58.2958 83.0291 58.2179 82.6834C58.1399 82.3377 58.1802 81.9759 58.3323 81.6558C58.4844 81.3358 58.7396 81.076 59.0568 80.9182L68.1063 76.5402C68.4863 76.3631 68.9204 76.3414 69.3162 76.4797C69.712 76.6179 70.0381 76.9053 70.2251 77.2805C70.3159 77.4672 70.3688 77.67 70.3807 77.8773C70.3927 78.0846 70.3633 78.2922 70.2945 78.488C70.2256 78.6839 70.1186 78.8641 69.9796 79.0184C69.8407 79.1726 69.6725 79.2977 69.4848 79.3865L60.4225 83.7389C60.2086 83.8481 59.9733 83.9091 59.7333 83.9176Z" fill="#FDFAF8"/>
<path d="M59.7333 74.1406C59.379 74.1343 59.0371 74.0092 58.7623 73.7854C58.4876 73.5616 58.2958 73.2521 58.2179 72.9064C58.1399 72.5607 58.1802 72.1989 58.3323 71.8788C58.4844 71.5587 58.7396 71.299 59.0568 71.1412L65.1834 68.18C65.37 68.0411 65.5848 67.945 65.8127 67.8985C66.0406 67.8521 66.276 67.8565 66.502 67.9114C66.728 67.9662 66.9392 68.0702 67.1204 68.216C67.3017 68.3617 67.4486 68.5456 67.5507 68.7546C67.6528 68.9636 67.7076 69.1925 67.7112 69.4251C67.7148 69.6576 67.667 69.8881 67.5714 70.1001C67.4758 70.3121 67.3346 70.5005 67.1579 70.6517C66.9812 70.803 66.7734 70.9134 66.5491 70.9752L60.4225 73.9236C60.2142 74.0518 59.9775 74.1263 59.7333 74.1406Z" fill="#FDFAF8"/>
<path d="M88.2347 91.2313H88.1326C87.972 91.2318 87.8125 91.2059 87.6603 91.1547C61.3926 82.871 66.3577 52.5445 66.3577 52.2381C66.4059 51.9711 66.5215 51.7207 66.6935 51.5108C66.8654 51.3008 67.0881 51.1382 67.3405 51.0383L87.5327 43.0993C87.7151 43.0262 87.9106 42.9914 88.107 42.9972C88.3367 42.9927 88.5654 43.0272 88.7835 43.0993L108.988 51.0383C109.241 51.1382 109.463 51.3008 109.635 51.5108C109.807 51.7207 109.923 51.9711 109.971 52.2381C109.971 52.5445 114.962 82.871 88.7069 91.1547C88.5545 91.205 88.3951 91.2309 88.2347 91.2313ZM69.3827 53.6421C68.8671 58.3852 69.1388 63.1809 70.1868 67.8354C72.5353 78.0464 78.6108 84.8367 88.2347 88.0021C97.8457 84.8367 103.921 78.0464 106.283 67.8354C107.305 63.1767 107.555 58.3819 107.023 53.6421L88.1836 46.252L69.3827 53.6421Z" fill="#FDFAF8"/>
<path d="M88.1453 74.9832C87.8975 74.9842 87.6529 74.927 87.4312 74.8161C87.2095 74.7053 87.0169 74.5439 86.869 74.345L81.2657 66.8527C81.0152 66.5142 80.9094 66.09 80.9717 65.6735C81.0339 65.257 81.259 64.8823 81.5976 64.6318C81.9361 64.3813 82.3602 64.2756 82.7767 64.3378C83.1932 64.4 83.5679 64.6252 83.8184 64.9637L88.1581 70.7712L97.9479 57.8926C98.0736 57.725 98.2311 57.5838 98.4114 57.477C98.5917 57.3703 98.7912 57.3001 98.9986 57.2704C99.206 57.2408 99.4172 57.2523 99.6202 57.3043C99.8232 57.3563 100.014 57.4478 100.182 57.5735C100.349 57.6992 100.49 57.8567 100.597 58.037C100.704 58.2173 100.774 58.4168 100.804 58.6242C100.833 58.8316 100.822 59.0429 100.77 59.2458C100.718 59.4488 100.626 59.6395 100.501 59.8071L89.4345 74.3578C89.2861 74.5584 89.0913 74.7201 88.8668 74.829C88.6423 74.938 88.3948 74.9908 88.1453 74.9832Z" fill="#0178C0"/>
<path d="M15.1501 40.5L16.1501 32L27.6501 26L37.1501 21L43.1501 18.5L60.1501 27.5L44.6501 35.5L36.1501 40.5L35.1501 44.5L34.1501 64.5L33.1501 64L24.1501 53.5L16.1501 57.5L15.1501 40.5Z" fill="#FDFAF8"/>
</svg>
