<svg width="80" height="80" viewBox="0 0 80 80" fill="none" xmlns="http://www.w3.org/2000/svg">
<g id="Industries">
<path id="Vector" d="M51.6378 42.3438C50.5489 47.6861 45.6588 51.7188 40 51.7188C34.3413 51.7188 29.6073 47.6861 28.5184 42.3438H23.8306C24.9802 50.2734 31.757 56.4062 40 56.4062C48.243 56.4062 55.1761 50.2734 56.3256 42.3438H51.6378Z" fill="#00357B"/>
<path id="Vector_2" d="M61.0131 42.3438C59.8298 52.8617 50.8292 61.0938 40 61.0938C29.1708 61.0938 20.3264 52.8617 19.1431 42.3438H0V44.6875C0 45.6969 0.647812 46.5941 1.60453 46.9122L11.248 50.0594C11.6531 51.2084 12.0811 52.2544 12.5389 53.2202L8.08937 62.1603C7.64078 63.062 7.81922 64.1492 8.53109 64.8611L15.1389 71.4689C15.8553 72.1853 16.9402 72.3547 17.8397 71.9106L26.7798 67.4611C27.7458 67.9189 28.7917 68.3469 29.9406 68.752L33.0878 78.3955C33.4059 79.3522 34.3031 80 35.3125 80H44.8438C45.8531 80 46.7503 79.3522 47.0684 78.3955L50.2156 68.752C51.3647 68.3469 52.4106 67.9189 53.3764 67.4611L62.3166 71.9106C63.2161 72.3569 64.3033 72.1853 65.0173 71.4689L71.6252 64.8611C72.337 64.1492 72.5155 63.062 72.0669 62.1603L67.6173 53.2202C68.0752 52.2542 68.5031 51.2083 68.9083 50.0594L78.3955 46.9122C79.3522 46.5941 80 45.6969 80 44.6875V42.3438H61.0131Z" fill="#001737"/>
<path id="Vector_3" d="M33.4005 42.3438C34.3712 45.0659 36.9484 47.0312 40 47.0312C43.0515 47.0312 45.785 45.0659 46.7558 42.3438H33.4005Z" fill="#00357B"/>
<path id="Vector_4" d="M40 0C34.8295 0 30.625 4.20453 30.625 9.375C30.625 14.5455 34.8295 18.75 40 18.75C45.1705 18.75 49.5312 14.5455 49.5312 9.375C49.5312 4.20453 45.1705 0 40 0Z" fill="#58B354"/>
<path id="Vector_5" d="M63.5938 0C58.4233 0 54.2188 4.20453 54.2188 9.375C54.2188 14.5455 58.4233 18.75 63.5938 18.75C68.7642 18.75 72.9688 14.5455 72.9688 9.375C72.9688 4.20453 68.7642 0 63.5938 0Z" fill="#58B354"/>
<path id="Vector_6" d="M16.5625 0C11.392 0 7.1875 4.20453 7.1875 9.375C7.1875 14.5455 11.392 18.75 16.5625 18.75C21.733 18.75 25.9375 14.5455 25.9375 9.375C25.9375 4.20453 21.733 0 16.5625 0Z" fill="#58B354"/>
<path id="Vector_7" d="M71.5882 20.9193C69.315 22.4988 66.5657 23.4375 63.5937 23.4375C60.634 23.4375 57.8934 22.5088 55.6254 20.9413C54.5975 21.5314 53.6095 22.195 52.715 22.9952C57.2729 26.4024 60.4375 31.7236 61.1068 37.6563H80V35.3125C80 29.1839 76.5811 23.7357 71.5882 20.9193Z" fill="#00A963"/>
<path id="Vector_8" d="M40 23.4375C31.7488 23.4375 24.9006 29.7164 23.7608 37.6562H56.3953C55.2556 29.7164 48.2513 23.4375 40 23.4375Z" fill="#00A963"/>
<path id="Vector_9" d="M24.5308 20.9413C22.2628 22.5088 19.5222 23.4375 16.5625 23.4375C13.5905 23.4375 10.8412 22.4988 8.56797 20.9193C3.57516 23.7357 0 29.1839 0 35.3125V37.6563H19.0494C19.7188 31.7236 22.8833 26.4024 27.4412 22.9952C26.5466 22.195 25.5587 21.5314 24.5308 20.9413Z" fill="#00A963"/>
</g>
</svg>
