<svg width="115" height="100" viewBox="0 0 115 100" fill="none" xmlns="http://www.w3.org/2000/svg">
<path d="M74.9993 49.9999H92.8564V64.2856C92.8564 72.1651 86.4502 78.5713 78.5707 78.5713H76.7851C73.8164 78.5713 71.4279 80.9596 71.4279 83.9285V94.6428C71.4279 97.6114 73.8162 100 76.7851 100H78.5707C98.3028 100 114.285 84.0179 114.285 64.2858V10.7143C114.285 4.79907 109.486 0 103.571 0H74.9993C69.0841 0 64.285 4.79907 64.285 10.7143V39.2856C64.285 45.2008 69.0841 49.9999 74.9993 49.9999Z" fill="white"/>
<path d="M10.7143 49.9999H28.5714V64.2856C28.5714 72.1651 22.1652 78.5713 14.2857 78.5713H12.5001C9.53141 78.5713 7.14284 80.9596 7.14284 83.9285V94.6428C7.14284 97.6114 9.53118 100 12.5001 100H14.2857C34.0178 100 49.9999 84.0179 49.9999 64.2858V10.7143C49.9999 4.79907 45.2008 0 39.2856 0H10.7143C4.79907 0 0 4.79907 0 10.7143V39.2856C0 45.2008 4.79907 49.9999 10.7143 49.9999Z" fill="white"/>
</svg>
