<svg width="100" height="100" viewBox="0 0 100 100" fill="none" xmlns="http://www.w3.org/2000/svg">
<ellipse cx="82.6172" cy="63.4765" rx="7.61717" ry="7.61717" fill="#FEFBFA"/>
<path d="M70.3126 82.8125L69.4337 78.5156L74.2188 74.5117L76.6602 73.1445L83.3008 72.6562L88.9649 73.8281L93.6524 76.7578L97.168 81.0547L98.1445 85.5469L97.168 87.5L94.7266 88.5742H88.9649L84.0821 88.2812L77.4415 88.5742L71.1915 87.9883L71.7774 86.3281L70.3126 82.8125Z" fill="#FEFBFA"/>
<ellipse cx="16.797" cy="63.4765" rx="7.61717" ry="7.61717" fill="#FEFBFA"/>
<path d="M2.92987 80.7617L5.27361 77.4414H4.98065L8.39861 75L14.3556 72.168L19.4337 72.7539L26.0744 74.4141L31.2501 79.1015L30.3712 81.3476L28.7111 88.4765L6.83611 88.1836L2.53924 87.5976L1.56268 85.8398L1.95331 83.3984L2.92987 80.7617Z" fill="#FEFBFA"/>
<path d="M45.1173 23.4375L50.0001 16.5039H50.3907L51.5626 17.6758L54.3946 21.875L57.422 23.4375L62.8907 24.1211L62.5001 25.7812L57.422 30.5664L57.7149 37.7929L57.0313 39.1601L53.6134 37.5L50.0978 35.2539L47.9493 36.3281L40.8204 39.4531L42.3829 35.4492L43.6525 30.1758L38.5743 25.7812L37.1095 24.1211L45.1173 23.4375Z" fill="#FEFBFA"/>
<path d="M34.7181 23.4806C34.4308 24.3648 34.7136 25.3125 35.4382 25.8951L41.8903 31.081L39.7187 39.0691C39.4749 39.9659 39.8032 40.8988 40.5558 41.446C41.3085 41.9921 42.2966 42.0161 43.0745 41.5071L50.0005 36.9734L56.9266 41.5073C57.3001 41.7517 57.7218 41.8732 58.1427 41.8732C58.5989 41.8732 59.0542 41.7304 59.445 41.446C60.1979 40.8993 60.5264 39.9659 60.2821 39.0691L58.1104 31.0812L64.5622 25.8955C65.2874 25.313 65.5702 24.3652 65.2827 23.4806C64.9954 22.5959 64.2094 21.9953 63.2807 21.9503L55.0126 21.5472L52.0743 13.8086C51.7444 12.9392 50.9302 12.3773 50.0003 12.3773C49.0704 12.3773 48.2562 12.939 47.9265 13.8084L44.988 21.5474L36.7204 21.9503C35.7913 21.9953 35.0054 22.5959 34.7181 23.4806ZM45.7329 24.6396C46.6142 24.5966 47.3858 24.0359 47.6985 23.2113L50.0001 17.1498L52.3017 23.2119C52.6149 24.0363 53.3868 24.5966 54.2673 24.6396L60.7432 24.9554L55.6893 29.0173C55.0016 29.5703 54.7071 30.4775 54.9386 31.3283L56.6395 37.5849L51.2145 34.0335C50.8456 33.7921 50.4227 33.6714 49.9999 33.6714C49.577 33.6714 49.1538 33.7923 48.7847 34.0337L43.3601 37.5849L45.061 31.3287C45.2927 30.4773 44.998 29.5699 44.3101 29.0173L39.2564 24.9556L45.7329 24.6396ZM48.4376 7.29647V1.5625C48.4376 0.699608 49.1372 0 50.0001 0C50.863 0 51.5626 0.699608 51.5626 1.5625V7.29647C51.5626 8.15936 50.863 8.85897 50.0001 8.85897C49.1372 8.85897 48.4376 8.15936 48.4376 7.29647ZM57.953 16.5539C57.3757 15.9127 57.4274 14.9246 58.0686 14.3472L64.4583 8.59373C65.0997 8.0162 66.0876 8.06795 66.6651 8.70936C67.2424 9.35057 67.1907 10.3387 66.5495 10.916L60.1596 16.6695C59.861 16.9384 59.4872 17.0709 59.1145 17.0709C58.6874 17.0709 58.2616 16.8966 57.953 16.5539ZM33.3351 8.70936C33.9124 8.06795 34.9003 8.0162 35.5419 8.59373L41.9318 14.3472C42.573 14.9246 42.6247 15.9127 42.0474 16.5539C41.7388 16.8965 41.313 17.0709 40.8857 17.0709C40.5132 17.0709 40.1394 16.9384 39.8405 16.6695L33.4507 10.916C32.8093 10.3387 32.7577 9.35057 33.3351 8.70936ZM70.0458 25.8951L76.4979 31.081L74.3262 39.0691C74.0825 39.9659 74.4108 40.8988 75.1633 41.446C75.9155 41.9921 76.9038 42.0159 77.6821 41.5071L84.608 36.9734L91.5342 41.5073C91.9076 41.7517 92.3293 41.8732 92.7502 41.8732C93.2065 41.8732 93.6617 41.7304 94.0526 41.446C94.8051 40.8997 95.1336 39.9667 94.8897 39.0691L92.718 31.0812L99.1697 25.8955C99.8947 25.3132 100.178 24.3654 99.89 23.4806C99.6027 22.5959 98.8168 21.9953 97.8883 21.9503L89.6201 21.5472L86.6821 13.8086C86.3522 12.9392 85.5379 12.3773 84.608 12.3773C83.678 12.3773 82.8637 12.939 82.5338 13.8084L79.5957 21.5472L71.3282 21.9502C70.3989 21.9951 69.6129 22.5959 69.3256 23.4806C69.0381 24.3652 69.321 25.313 70.0458 25.8951ZM80.3403 24.6396C81.2217 24.5966 81.9936 24.0359 82.3065 23.2111L84.6078 17.1496L86.909 23.2109C87.2221 24.0359 87.994 24.5966 88.875 24.6394L95.351 24.9552L90.2977 29.0167C89.6096 29.5695 89.3147 30.4769 89.5463 31.3281L91.2473 37.5847L85.8223 34.0333C85.4532 33.7919 85.0303 33.6712 84.6075 33.6712C84.1844 33.6712 83.7614 33.7921 83.3924 34.0335L77.9678 37.5847L79.6688 31.3285C79.9002 30.4775 79.6057 29.5703 78.9178 29.0171L73.8641 24.9552L80.3403 24.6396ZM0.830269 25.8951L7.2824 31.081L5.11073 39.0691C4.86698 39.9659 5.1953 40.8988 5.94784 41.446C6.70057 41.9921 7.68865 42.0161 8.46658 41.5071L15.3925 36.9734L22.3187 41.5073C22.6921 41.7517 23.1138 41.8732 23.5347 41.8732C23.991 41.8732 24.4462 41.7304 24.8371 41.446C25.5896 40.8997 25.9181 39.9667 25.6742 39.0691L23.5025 31.0812L29.9542 25.8955C30.6788 25.3136 30.9619 24.366 30.6745 23.4796C30.3867 22.5955 29.6007 21.9951 28.6728 21.9502L20.4046 21.547L17.4666 13.8086C17.1367 12.9392 16.3224 12.3773 15.3925 12.3773C14.4625 12.3773 13.6482 12.939 13.3183 13.8084L10.3803 21.5472L2.11269 21.9502C1.18359 21.9951 0.397653 22.5959 0.110544 23.4796C-0.177542 24.3646 0.105075 25.3128 0.830269 25.8951ZM11.1248 24.6396C12.0062 24.5966 12.7781 24.0359 13.091 23.2111L15.3924 17.1496L17.6935 23.2109C18.0066 24.0359 18.7785 24.5966 19.6595 24.6394L26.1355 24.9552L21.0822 29.0167C20.3941 29.5695 20.0992 30.4769 20.3308 31.3281L22.0318 37.5847L16.6068 34.0333C16.2377 33.7919 15.8148 33.6712 15.392 33.6712C14.9689 33.6712 14.5459 33.7921 14.1769 34.0335L8.75232 37.5847L10.4533 31.3285C10.6847 30.4775 10.3902 29.5703 9.70232 29.0171L4.64862 24.9552L11.1248 24.6396ZM99.7541 82.9946C98.6547 79.4442 96.4029 76.2563 93.4133 74.0176C91.982 72.946 90.4235 72.1112 88.7793 71.5202C91.0588 69.7311 92.5275 66.9538 92.5275 63.838C92.5275 58.454 88.1473 54.0739 82.7635 54.0739C77.3795 54.0739 72.9993 58.454 72.9993 63.838C72.9993 66.9501 74.4645 69.7247 76.7395 71.5139C73.6905 72.6022 70.9893 74.5143 68.9208 77.0909C67.954 75.7383 66.8387 74.4821 65.585 73.3483C63.0589 71.0637 60.0942 69.386 56.9014 68.3944C60.2872 66.1499 62.5255 62.3067 62.5255 57.9491C62.5255 51.0429 56.9065 45.4241 50.0003 45.4241C43.0941 45.4241 37.4751 51.0429 37.4751 57.9491C37.4751 62.3067 39.7132 66.1499 43.0989 68.3944C39.906 69.3858 36.9413 71.0637 34.4152 73.3483C33.1615 74.4821 32.0462 75.7383 31.0796 77.0907C29.0113 74.5139 26.3101 72.6018 23.2609 71.5133C25.5357 69.7241 27.0011 66.9495 27.0011 63.8374C27.0011 58.4534 22.6209 54.0733 17.2371 54.0733C11.8531 54.0733 7.47283 58.4534 7.47283 63.8374C7.47283 66.953 8.94158 69.7305 11.2209 71.5196C9.57674 72.1106 8.01815 72.9454 6.5867 74.017C3.59706 76.2555 1.34531 79.4436 0.245895 82.9938C-0.262112 84.6336 0.0193331 86.2979 1.03828 87.6803C2.05702 89.0623 3.56366 89.8233 5.28046 89.8233H26.8806V92.6432C26.8806 96.6998 30.1808 100 34.2374 100H65.7628C69.8192 100 73.1196 96.6998 73.1198 92.6432V89.824H94.7197C96.4367 89.824 97.9434 89.0629 98.9619 87.6811C99.9807 86.2987 100.262 84.6342 99.7541 82.9946ZM82.7635 57.1989C86.4242 57.1989 89.4026 60.1772 89.4026 63.838C89.4026 67.4989 86.4242 70.4772 82.7635 70.4772C79.1026 70.4772 76.1243 67.4989 76.1243 63.838C76.1243 60.1772 79.1026 57.1989 82.7635 57.1989ZM40.6001 57.9491C40.6001 52.7659 44.8171 48.5491 50.0003 48.5491C55.1835 48.5491 59.4005 52.7659 59.4005 57.9491C59.4005 63.1307 55.1862 67.3464 50.0054 67.3491C50.0036 67.3491 50.0017 67.3491 50.0001 67.3491C49.9985 67.3491 49.9968 67.3491 49.995 67.3491C44.8142 67.3462 40.6001 63.1305 40.6001 57.9491ZM17.2371 57.1981C20.8978 57.1981 23.8761 60.1764 23.8761 63.8372C23.8761 67.4981 20.8978 70.4764 17.2371 70.4764C13.5761 70.4764 10.5978 67.4981 10.5978 63.8372C10.5978 60.1764 13.5761 57.1981 17.2371 57.1981ZM27.0835 86.6981H5.28065C4.56151 86.6981 3.98065 86.4047 3.5539 85.8258C3.12694 85.2469 3.01855 84.6051 3.23124 83.9182C5.14217 77.7473 10.7709 73.6014 17.2371 73.6014C22.1283 73.6014 26.5839 75.9647 29.3244 79.9653C28.241 82.07 27.4822 84.3385 27.0835 86.6981ZM69.9948 92.643C69.9946 94.9764 68.0962 96.8748 65.7628 96.8748H34.2374C31.904 96.8748 30.0056 94.9764 30.0056 92.643V88.3455C31.1369 78.1526 39.7157 70.4766 49.995 70.4741C49.9968 70.4741 49.9985 70.4743 50.0003 70.4743C50.002 70.4743 50.0038 70.4741 50.0054 70.4741C60.2845 70.4768 68.8631 78.1526 69.9948 88.3455V92.643ZM96.4465 85.8268C96.0197 86.4055 95.4391 86.6989 94.7197 86.6989H72.917C72.5182 84.3391 71.7594 82.0705 70.6762 79.9657C73.4168 75.9653 77.8723 73.6022 82.7633 73.6022C89.2295 73.6022 94.8582 77.7483 96.7691 83.9192C96.9818 84.6057 96.8732 85.2475 96.4465 85.8268Z" fill="#FEFBFA"/>
</svg>
