<svg width="78" height="80" viewBox="0 0 78 80" fill="none" xmlns="http://www.w3.org/2000/svg">
<g id="Services">
<path id="Vector" d="M56.1313 15.8039H54.0983C53.7637 14.6232 53.2922 13.4889 52.6882 12.412L54.1284 10.9711C55.2445 9.90253 55.2442 7.97683 54.1291 6.9072L52.0975 4.87559C50.9765 3.75315 49.1518 3.75456 48.0336 4.87559L46.5927 6.31652C45.5159 5.71251 44.3808 5.24108 43.2008 4.90645V2.87344C43.2008 1.28869 41.9121 0 40.3274 0H37.454C35.8692 0 34.5805 1.28869 34.5805 2.87344V4.90645C33.3998 5.24108 32.2655 5.71251 31.1887 6.31652L29.7477 4.8763C28.6632 3.78963 26.7698 3.78893 25.6838 4.87559L23.6522 6.9072C22.5373 7.97623 22.5371 9.90261 23.6522 10.9704L25.0931 12.412C24.4891 13.4889 24.0177 14.6232 23.6831 15.8039H21.65C20.0653 15.8039 18.7766 17.0926 18.7766 18.6773V21.5508C18.7766 23.1355 20.0653 24.4242 21.65 24.4242H23.6831C24.0177 25.6049 24.4891 26.7392 25.0931 27.8161L23.6529 29.257C22.5369 30.3256 22.5371 32.2513 23.6522 33.3209L25.6838 35.3525C26.7698 36.4392 28.6639 36.4378 29.747 35.3525L31.1887 33.9116C32.2655 34.5156 33.3998 34.987 34.5805 35.3217V37.3547C34.5805 38.9394 35.8692 40.2281 37.454 40.2281H40.3274C41.9121 40.2281 43.2008 38.9394 43.2008 37.3547V35.3217C44.3808 34.987 45.5159 34.5156 46.5927 33.9116L48.0336 35.3525C49.1533 36.4736 50.9779 36.475 52.0975 35.3525L54.1291 33.3209C55.244 32.2519 55.2443 30.3255 54.1291 29.2577L52.6882 27.8161C53.2922 26.7392 53.7637 25.6049 54.0983 24.4242H56.1313C57.716 24.4242 59.0047 23.1355 59.0047 21.5508V18.6773C59.0047 17.0926 57.716 15.8039 56.1313 15.8039ZM38.8907 28.7344C34.1372 28.7344 30.2704 24.8676 30.2704 20.1141C30.2704 15.3605 34.1372 11.4937 38.8907 11.4937C43.6442 11.4937 47.511 15.3605 47.511 20.1141C47.511 24.8676 43.6442 28.7344 38.8907 28.7344Z" fill="#00A963"/>
<path id="Vector_2" d="M32.7515 56.1261L37.4538 48.289V80L7.14869 68.1418C5.48398 67.4901 4.40924 65.9145 4.40924 64.1277V48.8923L27.4851 57.922C28.0021 58.124 28.5353 58.2208 29.0615 58.2208C30.5368 58.2208 31.951 57.4597 32.7515 56.1261ZM50.2958 57.922L73.3717 48.892V64.1277C73.3717 65.9144 72.297 67.49 70.633 68.1418L40.3272 80V48.2889L45.0295 56.1261C45.8299 57.4597 47.2435 58.2208 48.7195 58.2208C49.2457 58.2208 49.7795 58.124 50.2958 57.922Z" fill="#001737"/>
<path id="Vector_3" d="M56.8301 34.5391C57.4853 33.5892 57.8444 32.4685 57.8444 31.2893C57.8444 30.2559 57.556 29.2733 57.0483 28.405L66.9852 30.5654L56.8301 34.5391ZM20.9516 34.5392L10.7961 30.5654L20.7334 28.4051C20.2255 29.2737 19.9369 30.2563 19.9369 31.2893C19.9369 32.4687 20.2962 33.5895 20.9516 34.5392ZM0.915136 44.4394C0.514564 44.2822 0.217824 43.9722 0.0789219 43.5646C-0.05998 43.1577 -0.0143785 42.7305 0.206603 42.3622L6.45366 31.9516L36.784 43.8199L30.2879 54.6472C29.9259 55.2505 29.1886 55.501 28.532 55.2463L0.915136 44.4394ZM77.7024 43.5646C77.5635 43.9722 77.2661 44.2822 76.8655 44.4394L49.2494 55.2463C48.5941 55.5017 47.8547 55.2505 47.4934 54.6472L40.9973 43.8199L71.3277 31.9516L77.5747 42.3615C77.7957 42.7305 77.8413 43.1577 77.7024 43.5646Z" fill="#00357B"/>
<path id="Vector_4" d="M56.8301 34.5391C57.4853 33.5892 57.8444 32.4685 57.8444 31.2893C57.8444 30.2559 57.556 29.2733 57.0483 28.405L66.9852 30.5654L56.8301 34.5391ZM20.9516 34.5392L10.7961 30.5654L20.7334 28.4051C20.2255 29.2737 19.9369 30.2563 19.9369 31.2893C19.9369 32.4687 20.2962 33.5895 20.9516 34.5392ZM0.915136 44.4394C0.514564 44.2822 0.217824 43.9722 0.0789219 43.5646C-0.05998 43.1577 -0.0143785 42.7305 0.206603 42.3622L6.45366 31.9516L36.784 43.8199L30.2879 54.6472C29.9259 55.2505 29.1886 55.501 28.532 55.2463L0.915136 44.4394ZM77.7024 43.5646C77.5635 43.9722 77.2661 44.2822 76.8655 44.4394L49.2494 55.2463C48.5941 55.5017 47.8547 55.2505 47.4934 54.6472L40.9973 43.8199L71.3277 31.9516L77.5747 42.3615C77.7957 42.7305 77.8413 43.1577 77.7024 43.5646Z" fill="#00357B"/>
<path id="Vector_5" d="M56.8301 34.5391C57.4853 33.5892 57.8444 32.4685 57.8444 31.2893C57.8444 30.2559 57.556 29.2733 57.0483 28.405L66.9852 30.5654L56.8301 34.5391ZM20.9516 34.5392L10.7961 30.5654L20.7334 28.4051C20.2255 29.2737 19.9369 30.2563 19.9369 31.2893C19.9369 32.4687 20.2962 33.5895 20.9516 34.5392Z" fill="#58B354"/>
</g>
</svg>
