<svg width="80" height="80" viewBox="0 0 80 80" fill="none" xmlns="http://www.w3.org/2000/svg">
<g id="Software products">
<path id="Vector" d="M51.43 11.4286C50.6083 11.4286 49.7935 11.0756 49.2285 10.3948C46.7285 7.37584 43.4515 5.71429 40 5.71429C36.5486 5.71429 33.2715 7.37584 30.7715 10.3948C29.767 11.6071 27.966 11.7787 26.7481 10.7715C25.5329 9.76562 25.3641 7.96317 26.3714 6.74805C29.9763 2.39676 34.8159 0 40 0C45.1842 0 50.0237 2.39676 53.6286 6.74805C54.6359 7.96317 54.4671 9.76562 53.252 10.7715C52.7176 11.2137 52.0717 11.4286 51.43 11.4286Z" fill="#00357B"/>
<path id="Vector_2" d="M45.7157 17.1428C44.894 17.1428 44.0792 16.7899 43.5142 16.1077C41.5667 13.7584 38.4333 13.7584 36.4858 16.1077C35.4785 17.3242 33.6802 17.493 32.4637 16.4858C31.2486 15.4799 31.0784 13.6788 32.0857 12.4637C34.1643 9.95394 36.9754 8.57141 40 8.57141C43.0246 8.57141 45.8357 9.95394 47.9143 12.4637C48.9216 13.6788 48.7514 15.4799 47.5363 16.4858C47.0033 16.928 46.3574 17.1428 45.7157 17.1428Z" fill="#00357B"/>
<path id="Vector_3" d="M40.0851 22.8572C38.5073 22.8572 37.214 21.5779 37.214 20C37.214 18.4222 38.4794 17.1429 40.0572 17.1429H40.0851C41.6644 17.1429 42.9423 18.4222 42.9423 20C42.9423 21.5779 41.6644 22.8572 40.0851 22.8572Z" fill="#00357B"/>
<path id="Vector_4" d="M68.5714 80H11.4286C5.11674 80 0 74.8832 0 68.5714L80 68.5714C80 74.8832 74.8833 80 68.5714 80Z" fill="#00357B"/>
<path id="Vector_5" d="M62.8572 28.5714H17.1429C12.409 28.5714 8.57144 32.409 8.57144 37.1428V65.7143H71.4286V37.1428C71.4286 32.409 67.591 28.5714 62.8572 28.5714ZM54.2857 54.286C54.2857 55.3683 53.6743 56.3576 52.7063 56.8415L41.4443 63.4396C40.5525 63.962 39.4477 63.962 38.5557 63.4396L27.2937 56.8415C26.3257 56.3576 25.7143 55.3683 25.7143 54.286V39.9996C25.7143 38.9174 26.3257 37.9281 27.2937 37.444L38.7223 31.7297C39.5267 31.3276 40.4735 31.3276 41.2777 31.7297L52.7063 37.444C53.6743 37.9281 54.2857 38.9174 54.2857 39.9996V54.286Z" fill="#001737"/>
<path id="Vector_6" d="M38.7223 34.5965L28.5714 40L40 45.7143L51.4286 40L41.2778 34.5965C40.4734 34.1821 39.5266 34.1821 38.7223 34.5965Z" fill="#00A963"/>
<path id="Vector_7" d="M28.5714 42.8571L38.5714 48V60L30.011 55.1083C29.1208 54.5996 28.5714 53.6529 28.5714 52.6276V42.8571Z" fill="#58B354"/>
<path id="Vector_8" d="M51.4286 42.8571L41.4286 48V60L49.989 55.1083C50.8792 54.5996 51.4286 53.6529 51.4286 52.6276V42.8571Z" fill="#58B354"/>
</g>
</svg>
