<svg width="100" height="100" viewBox="0 0 100 100" fill="none" xmlns="http://www.w3.org/2000/svg">
<path d="M92.069 0.0130802L71.4425 1.22147C67.3692 1.46411 63.3601 3.13682 60.2125 6.28441L60.2021 6.27399L41.8778 24.5879L26.5537 22.7961C22.2305 22.296 17.9697 23.7649 14.8965 26.8485L7.91688 33.8282C5.87504 35.87 5.87504 39.1931 7.91688 41.2454C9.27179 42.6003 3.00865 36.3372 21.1678 54.4964L18.8239 56.8403C16.5321 59.1322 16.5321 62.8616 18.8239 65.1535L19.2511 65.5806C13.2297 72.9145 14.2819 84.2382 14.334 84.7383C14.3861 85.2279 14.7715 85.6134 15.2716 85.6655C21.5691 86.1876 29.3779 84.8773 34.4189 80.7484L34.846 81.1755C37.1512 83.4808 40.8808 83.4539 43.1591 81.1755L45.5134 78.8212C63.6584 96.9947 57.4002 90.7266 58.7541 92.0826C60.8525 94.1598 64.1648 94.0891 66.1713 92.0826L73.151 85.1029C76.2345 82.0297 77.7034 77.7795 77.2033 73.4458L75.4116 58.1113C80.1275 53.3953 82.0819 51.4409 93.8088 39.714V39.7036C96.5881 36.9276 98.5119 32.9574 98.7779 28.5569L99.9864 7.93032C100.249 3.44629 96.5583 -0.248419 92.069 0.0130802ZM72.13 7.28445C72.0884 6.7115 72.5155 6.21148 73.0885 6.1594L74.9741 6.01355C75.5574 5.96147 76.047 6.38857 76.0991 6.96151C76.1408 7.53452 75.7137 8.03454 75.1407 8.08661C75.0356 8.09496 73.0448 8.25299 73.1718 8.2429C72.6406 8.2429 72.1822 7.8366 72.13 7.28445ZM78.3076 6.78443C78.266 6.21148 78.6931 5.70104 79.2661 5.65932L84.5581 5.22181C85.1415 5.18016 85.6415 5.60726 85.6832 6.1802C85.7353 6.75321 85.3082 7.25323 84.7352 7.29488C84.6302 7.30341 78.9918 7.76144 79.3494 7.73239C78.8077 7.73239 78.3493 7.32616 78.3076 6.78443ZM9.39614 35.297L16.3654 28.3277C18.6573 26.0359 21.6992 24.7858 24.8869 24.7858C25.3557 24.7858 25.8349 24.8066 26.3141 24.8691L40.0131 26.463C27.82 38.6561 30.6095 35.8666 18.0531 48.4231L9.39614 39.7661C8.15645 38.5368 8.15645 36.5263 9.39614 35.297ZM27.4808 49.1731C27.8871 48.7564 28.5434 48.7564 28.9601 49.1522L29.7102 49.8919C30.1165 50.2878 30.1268 50.9545 29.7206 51.3607C29.5227 51.5691 29.2518 51.6733 28.9809 51.6733C28.7205 51.6733 28.4496 51.5795 28.2517 51.3816L27.5017 50.6419C27.085 50.2461 27.085 49.5794 27.4808 49.1731ZM30.5227 52.142C30.929 51.7254 31.5853 51.7254 31.9916 52.1212L36.9711 56.9862C37.3878 57.3925 37.3983 58.0488 36.992 58.455C36.7836 58.6634 36.5128 58.778 36.242 58.778C35.9815 58.778 35.7211 58.6738 35.5232 58.4759L30.5436 53.6109C30.1268 53.2151 30.1165 52.5483 30.5227 52.142ZM41.6798 79.7067C40.2006 81.1859 37.7941 81.1859 36.3148 79.7067C22.8371 66.2288 24.9123 68.304 20.2928 63.6846C18.8135 62.2054 18.8135 59.7989 20.2928 58.3197L22.6471 55.9653L44.0342 77.3523L41.6798 79.7067ZM75.1303 73.6854C75.5679 77.3836 74.3073 81.0089 71.6821 83.6341L64.7024 90.6034C63.4731 91.843 61.4626 91.843 60.2333 90.6034L51.5764 81.9464C59.5068 74.0161 65.6364 67.8865 73.5365 59.9864L75.1303 73.6854ZM58.2957 72.279L27.3142 42.11C72.1297 -2.69165 58.2992 11.1346 61.0251 8.40954L91.6003 38.9848C91.4877 39.0973 93.4436 37.1311 58.2957 72.279Z" fill="white"/>
<path d="M23.1224 91.0322L15.9329 98.2217C15.526 98.6287 15.526 99.2879 15.9329 99.6948C16.3398 100.102 16.999 100.102 17.406 99.6948L24.5955 92.5053C25.0024 92.0984 25.0024 91.4392 24.5955 91.0322C24.1885 90.6253 23.5293 90.6253 23.1224 91.0322Z" fill="white"/>
<path d="M8.96777 75.4043C8.56083 74.9974 7.90161 74.9974 7.49468 75.4043L0.305203 82.5938C-0.101734 83.0007 -0.101734 83.66 0.305203 84.0669C0.71212 84.4738 1.37136 84.4738 1.77829 84.0669L8.96777 76.8774C9.37471 76.4705 9.37471 75.8113 8.96777 75.4043Z" fill="white"/>
<path d="M8.43515 90.0913L3.35867 95.1678C2.95173 95.5748 2.95173 96.234 3.35867 96.6409C3.76559 97.0478 4.42482 97.0478 4.83176 96.6409L9.90824 91.5644C10.3152 91.1575 10.3152 90.4983 9.90824 90.0913C9.50131 89.6844 8.84209 89.6844 8.43515 90.0913Z" fill="white"/>
<path d="M72.1094 27.8795C66.7959 22.5661 58.1828 22.5442 52.8475 27.8795C47.4896 33.259 47.5327 41.8372 52.8475 47.1518C58.1805 52.4849 66.7952 52.4657 72.1094 47.1518C77.4222 41.8389 77.4222 33.1924 72.1094 27.8795ZM58.4937 33.5257C60.7022 31.3277 64.265 31.3277 66.4631 33.5257C68.6716 35.7342 68.6716 39.297 66.4631 41.5055C64.265 43.7036 60.7022 43.7036 58.4937 41.5055C56.2957 39.297 56.2957 35.7342 58.4937 33.5257Z" fill="white"/>
<path d="M20.0256 31.369C20.2922 31.369 20.5587 31.2672 20.7622 31.0638L22.8289 28.997C23.2358 28.5901 23.2358 27.9309 22.8289 27.5239C22.422 27.117 21.7627 27.117 21.3558 27.5239L19.2891 29.5907C18.8822 29.9976 18.8822 30.6568 19.2891 31.0638C19.4926 31.2672 19.7591 31.369 20.0256 31.369Z" fill="white"/>
<path d="M18.2423 32.1089C17.8363 31.703 17.1761 31.702 16.7692 32.1099L16.2361 32.6435C15.8297 33.0504 15.8297 33.7097 16.2371 34.1166C16.4401 34.3195 16.7066 34.4213 16.9731 34.4213C17.2397 34.4213 17.5067 34.3196 17.7102 34.1156L18.2433 33.582C18.6497 33.1751 18.6497 32.5158 18.2423 32.1089Z" fill="white"/>
</svg>
